<?xml version="1.0" encoding="UTF-8" standalone="no"?>
<svg
   xmlns:dc="http://purl.org/dc/elements/1.1/"
   xmlns:cc="http://creativecommons.org/ns#"
   xmlns:rdf="http://www.w3.org/1999/02/22-rdf-syntax-ns#"
   xmlns:svg="http://www.w3.org/2000/svg"
   xmlns="http://www.w3.org/2000/svg"
   viewBox="0 0 100 99.999999"
   height="100"
   width="100"
   id="svg4807"
   version="1.1">
  <metadata
     id="metadata4813">
    <rdf:RDF>
      <cc:Work
         rdf:about="">
        <dc:format>image/svg+xml</dc:format>
        <dc:type
           rdf:resource="http://purl.org/dc/dcmitype/StillImage" />
        <dc:title></dc:title>
      </cc:Work>
    </rdf:RDF>
  </metadata>
  <defs
     id="defs4811" />
  <path
     id="path4823"
     d="m 34.337387,84.81518 c -0.766433,-0.0076 -1.884052,-0.227469 -2.483614,-0.488533 -0.599553,-0.261074 -1.573186,-1.06074 -2.163626,-1.777057 -0.59044,-0.716297 -1.255461,-1.9096 -1.477823,-2.651769 -0.222361,-0.742169 -0.404289,-2.067958 -0.404289,-2.946209 0,-0.878242 0.245275,-2.291985 0.545051,-3.141653 0.299776,-0.849669 0.977181,-2.005049 1.50533,-2.567526 0.528159,-0.562476 1.473181,-1.242135 2.100051,-1.510352 0.62686,-0.268226 1.732104,-0.487677 2.456087,-0.487677 0.723983,0 2.006466,0.334085 2.849952,0.742416 1.012079,0.489941 1.826831,1.242763 2.395804,2.213724 0.474209,0.809225 0.969362,2.141673 1.100355,2.961 0.130984,0.819326 0.129957,2.35575 -0.0019,3.414273 -0.144462,1.156237 -0.619888,2.509762 -1.190839,3.390305 -0.562381,0.867322 -1.539553,1.750919 -2.393511,2.164311 -0.793712,0.384229 -2.070194,0.692366 -2.836627,0.684747 z m 0.480391,-1.872923 c 0.835849,-0.08503 1.854015,-0.452399 2.262613,-0.81635 0.408598,-0.363951 0.959984,-1.174622 1.225319,-1.801492 0.265325,-0.626869 0.482408,-2.106328 0.482408,-3.287694 0,-1.181356 -0.229496,-2.697177 -0.509982,-3.368485 -0.280487,-0.671298 -1.03758,-1.542225 -1.682436,-1.935376 -0.644846,-0.393152 -1.650609,-0.714824 -2.235038,-0.714824 -0.58442,0 -1.553506,0.299368 -2.153525,0.665249 -0.600018,0.365891 -1.357111,1.226175 -1.682435,1.911741 -0.332877,0.701497 -0.591487,2.110389 -0.591487,3.222416 0,1.086754 0.263185,2.633706 0.584867,3.437672 0.338849,0.846853 1.046567,1.751993 1.682435,2.151755 0.792761,0.498397 1.519578,0.647072 2.617261,0.535388 z m 12.506737,1.845701 c -0.701459,-0.02264 -1.594158,-0.119446 -1.983771,-0.215218 -0.389613,-0.09577 -0.907632,-0.335873 -1.151138,-0.53358 -0.243515,-0.197698 -0.442745,-0.6773 -0.442745,-1.065782 0,-0.567774 0.156333,-0.659056 0.796937,-0.465334 0.438322,0.132553 1.451009,0.328625 2.250409,0.435725 0.82804,0.110933 1.789869,0.01474 2.235229,-0.223655 0.495857,-0.265373 0.741503,-0.683778 0.671698,-1.14409 -0.07933,-0.52327 -0.687772,-0.940685 -2.181013,-1.496304 -1.139049,-0.423816 -2.453995,-1.13921 -2.922126,-1.589773 -0.552974,-0.532211 -0.851134,-1.218813 -0.851134,-1.959955 0,-0.760507 0.29678,-1.419583 0.890341,-1.977199 0.665933,-0.625614 1.402443,-0.872144 2.922116,-0.978132 1.117477,-0.0779 2.470098,0.02768 3.005819,0.234632 0.721766,0.27886 0.974042,0.618642 0.974042,1.311893 0,0.809749 -0.107186,0.901231 -0.796946,0.680229 -0.438313,-0.140438 -1.314519,-0.335796 -1.947114,-0.434146 -0.632596,-0.09834 -1.531497,-0.08313 -1.997564,0.03386 -0.466057,0.116974 -0.947409,0.473344 -1.069661,0.791924 -0.122253,0.318591 -0.0429,0.795425 0.17642,1.059647 0.219289,0.264222 1.272116,0.755723 2.339619,1.092223 1.188023,0.37449 2.272276,1.00563 2.795175,1.627059 0.469843,0.558377 0.854262,1.250001 0.854262,1.536946 0,0.286936 -0.234241,0.97468 -0.52053,1.528301 -0.291159,0.563047 -1.016787,1.179596 -1.646738,1.399199 -0.619413,0.215932 -1.700127,0.37411 -2.401587,0.35151 z m 12.184077,0.01227 c -0.58442,-0.01056 -1.403033,-0.183982 -1.819126,-0.385456 -0.416094,-0.201484 -0.934103,-0.756047 -1.151138,-1.232386 -0.217026,-0.476349 -0.394597,-2.452464 -0.394597,-4.391379 v -3.525293 h -0.910134 c -0.741237,0 -0.889113,-0.147886 -0.796937,-0.796946 0.07162,-0.504446 0.397812,-0.837446 0.888704,-0.907318 0.532021,-0.07571 0.810053,-0.397356 0.88549,-1.024377 0.06782,-0.563571 0.415522,-1.026128 0.906909,-1.206448 0.728054,-0.267161 0.796946,-0.187797 0.796946,0.918161 v 1.210595 l 2.036627,0.106225 c 1.789022,0.09331 2.050096,0.200885 2.147409,0.884824 0.101812,0.715536 -0.05602,0.787263 -1.948075,0.885489 l -2.058865,0.106891 -0.109012,2.479372 c -0.05992,1.363655 -0.01313,2.996107 0.104057,3.627657 0.154182,0.830864 0.451847,1.208216 1.076805,1.365062 0.475055,0.119237 1.344708,0.04908 1.93257,-0.155809 1.025053,-0.35734 1.068835,-0.331526 1.068835,0.630247 0,0.74059 -0.208418,1.058714 -0.796937,1.216425 -0.438322,0.117468 -1.275112,0.204965 -1.859531,0.194435 z m 8.954831,0.01465 c -0.639387,-0.0076 -1.596831,-0.249879 -2.127653,-0.537946 -0.530822,-0.288068 -1.128529,-0.829067 -1.328234,-1.202215 -0.199705,-0.373187 -0.363104,-1.219051 -0.363104,-1.879725 0,-0.788395 0.273895,-1.4578 0.796946,-1.94777 0.438321,-0.410595 1.245635,-0.916544 1.794044,-1.124334 0.548399,-0.20778 1.783657,-0.37779 2.745011,-0.37779 1.621666,0 1.747922,-0.06306 1.747922,-0.873029 0,-0.500633 -0.292233,-1.029428 -0.685109,-1.239691 -0.376801,-0.201655 -1.294334,-0.366652 -2.038957,-0.366652 -0.744623,0 -1.870822,0.148266 -2.502656,0.329471 -1.100889,0.315727 -1.148808,0.28803 -1.148808,-0.664117 0,-0.829466 0.182841,-1.03016 1.106861,-1.214961 0.608779,-0.121757 1.891805,-0.221372 2.851161,-0.221372 0.959365,0 2.197268,0.234242 2.750898,0.52053 0.563047,0.291159 1.179597,1.016787 1.399191,1.646739 0.215931,0.619412 0.392599,2.536917 0.392599,4.261117 0,3.107773 0.0076,3.13491 0.88549,3.13491 0.490426,0 0.885489,0.205431 0.885489,0.460455 0,0.253246 -0.191268,0.651714 -0.425034,0.885489 -0.233766,0.233766 -0.780244,0.425035 -1.214381,0.425035 -0.434146,0 -1.02606,-0.236705 -1.315355,-0.526 -0.465211,-0.465211 -0.671517,-0.465211 -1.784903,0 -0.692395,0.289295 -1.782041,0.519617 -2.421418,0.511818 z m 0.245769,-1.756816 c 0.668169,0 1.620829,-0.184972 2.11701,-0.411052 0.764997,-0.348552 0.902153,-0.644723 0.902153,-1.948084 0,-1.060027 -0.149531,-1.537023 -0.481856,-1.537023 -0.265021,0 -1.232909,0.102944 -2.150861,0.228763 -1.205468,0.165226 -1.820743,0.460341 -2.21535,1.062585 -0.494706,0.75501 -0.491501,0.917525 0.03386,1.719322 0.432216,0.659637 0.890055,0.885489 1.795053,0.885489 z m 14.530543,1.666142 c -1.004089,0.06601 -2.238719,-0.09589 -2.851132,-0.373767 -0.594073,-0.269558 -1.495618,-0.983867 -2.003422,-1.587357 -0.507794,-0.603481 -1.028876,-1.722375 -1.157967,-2.48642 -0.129082,-0.764055 -0.06706,-2.011698 0.137794,-2.772538 0.20487,-0.76084 0.698644,-1.733417 1.097255,-2.161286 0.39862,-0.427868 1.224377,-1.036295 1.83501,-1.35207 0.76261,-0.394359 1.691881,-0.525895 2.967772,-0.420097 1.021638,0.08475 2.27067,0.424748 2.775629,0.755618 0.65531,0.429371 0.918124,0.910295 0.918124,1.680114 v 1.078546 l -1.107841,-0.788852 c -0.631616,-0.449754 -1.842696,-0.859465 -2.817319,-0.953116 -1.539875,-0.147962 -1.816501,-0.05726 -2.788307,0.914585 -0.853749,0.853749 -1.07885,1.38381 -1.07885,2.540465 0,0.803889 0.246711,1.938724 0.548256,2.521841 0.301546,0.583116 0.949474,1.212754 1.439843,1.39919 0.490369,0.186436 1.255936,0.338983 1.701259,0.338983 0.445331,0 1.550671,-0.393988 2.456316,-0.875531 l 1.646643,-0.875521 v 1.011889 c 0,0.71294 -0.287763,1.200531 -0.974042,1.650429 -0.53572,0.351205 -1.770979,0.690911 -2.745021,0.754895 z M 3.10285,84.472851 l -2.92211661,0.0019 v -7.478293 -7.478293 l 3.66730071,0.135759 c 3.3604383,0.124392 3.7756374,0.218386 4.9620158,1.123278 0.7120933,0.54314 1.6120211,1.609501 1.9998361,2.369685 0.4923,0.964977 0.705121,2.084737 0.705121,3.709912 0,1.303048 -0.242145,2.907469 -0.550082,3.644626 -0.302544,0.724268 -0.9708846,1.756188 -1.4851939,2.293144 -0.5143192,0.536948 -1.5020389,1.13377 -2.1949379,1.326256 C 6.5918943,84.313311 4.7100203,84.471697 3.10285,84.472782 Z M 4.0944789,82.70384 c 1.2225509,0 2.5889738,-0.230742 3.181773,-0.53729 0.5714457,-0.295506 1.3092108,-1.052598 1.639462,-1.682426 C 9.2943316,79.762053 9.5217533,78.488406 9.5312743,77.036702 9.5411664,75.531981 9.3406149,74.352204 8.9524096,73.631056 8.6257346,73.024198 7.8093279,72.267106 7.1381819,71.94862 6.4602541,71.626929 5.036524,71.369565 3.9348176,71.369565 H 1.951712 v 5.667137 5.667138 z m 10.4958101,1.705967 c -0.522556,0.06163 -0.950102,0.0029 -0.950102,-0.130328 0,-0.133314 1.13883,-3.371519 2.530735,-7.195999 1.391895,-3.824479 2.668015,-7.13054 2.835818,-7.346795 0.167794,-0.216265 0.664754,-0.324449 1.10435,-0.240414 0.687097,0.131345 1.160212,1.155874 3.371092,7.300026 1.414504,3.930981 2.56801,7.266775 2.563349,7.412882 -0.0048,0.146107 -0.387511,0.265649 -0.850781,0.265649 -0.705046,0 -0.971817,-0.346317 -1.637075,-2.12518 l -0.794758,-2.12518 h -2.881141 -2.881141 l -0.730127,2.036627 c -0.617282,1.72187 -0.876967,2.053948 -1.680219,2.148712 z m 5.223222,-5.956318 h 2.277156 L 21.00437,75.214513 19.918082,71.975538 18.729791,75.12597 c -0.653559,1.732733 -1.18945,3.190267 -1.190867,3.238966 -9.52e-4,0.0487 1.022142,0.08855 2.274587,0.08855 z m 71.395637,6.021339 h -1.062585 v -7.992945 -7.992935 l 0.974042,0.112074 0.974033,0.112075 v 5.022633 c 0,4.424403 0.06325,4.970111 0.531297,4.581686 0.292215,-0.242516 1.660749,-1.42683 3.041189,-2.631804 1.728253,-1.508573 2.803736,-2.190867 3.453414,-2.190867 0.518932,0 0.947172,0.119542 0.951642,0.265649 0.005,0.146107 -0.979501,1.156379 -2.186615,2.245045 l -2.194748,1.979405 2.174146,3.156444 c 1.940503,2.817223 2.096598,3.168961 1.452474,3.272998 -0.396927,0.06411 -0.943006,0.03167 -1.213505,-0.07219 -0.2705,-0.1038 -1.233042,-1.303419 -2.138991,-2.665828 l -1.647154,-2.47711 -1.023027,0.756351 c -0.904588,0.668787 -1.023026,0.974185 -1.023026,2.637825 0,1.854395 -0.01531,1.881475 -1.062586,1.881475 z M 51.534556,66.41084 c -0.09743,0 -4.679161,-4.5041 -10.181624,-10.009112 l -10.00449,-10.009113 2.033555,-2.033555 2.033555,-2.033565 -1.976238,-1.976238 -1.976239,-1.976238 1.272839,-1.30007 c 0.700071,-0.715042 1.580814,-1.664059 1.957225,-2.108935 L 35.377506,34.155169 33.367701,32.124163 31.357896,30.093177 41.448533,20.007191 51.539179,9.9212087 61.629815,20.007191 l 10.090646,10.085986 -2.02159,2.042904 -2.021589,2.042905 2.022341,2.043676 2.02235,2.043666 -2.025946,2.025945 -2.025945,2.025946 2.025184,2.046548 2.025195,2.046548 -10.004386,9.999763 C 56.213669,61.910944 51.631983,66.41084 51.534556,66.41084 Z m 0.0048,-3.896158 c 0.100575,0 3.812124,-3.631832 8.247874,-8.070731 l 8.065014,-8.07073 -1.002682,-0.960631 -1.002691,-0.96063 -7.178088,7.171829 -7.178098,7.17183 -7.051137,-7.246828 -7.051147,-7.246838 -1.080962,1.035629 -1.080971,1.035639 8.065004,8.07073 c 4.43575,4.438899 8.147299,8.070731 8.247884,8.070731 z m 0.01788,-8.146519 c 0.111543,0 2.822902,-2.639062 6.025248,-5.864588 3.202347,-3.225526 5.88949,-5.935763 5.971432,-6.022737 0.08189,-0.08693 -0.224778,-0.555979 -0.68159,-1.04223 -0.456812,-0.486251 -1.002016,-0.881685 -1.211565,-0.878746 -0.209549,0.0029 -2.427829,2.154676 -4.929515,4.781648 -2.501676,2.626963 -4.796895,4.776303 -5.100476,4.776303 -0.30359,0 -2.616642,-2.151746 -5.140129,-4.781648 -2.523487,-2.629912 -4.782903,-4.781648 -5.020921,-4.781648 -0.238027,0 -0.812108,0.403785 -1.27574,0.897303 l -0.842982,0.897312 6.001726,6.009515 c 3.300943,3.305234 6.09297,6.009516 6.204512,6.009516 z m -0.01788,-8.146509 c 0.103752,0 1.979225,-1.795661 4.167695,-3.990361 l 3.979052,-3.990371 -4.073379,-4.061822 -4.073368,-4.061812 -4.073378,4.061812 -4.073369,4.061822 3.979042,3.990371 c 2.18848,2.1947 4.063943,3.990361 4.167705,3.990361 z M 37.366937,40.200325 c 0.124401,0 0.655138,-0.447719 1.179396,-0.994939 l 0.953203,-0.994929 -0.996376,-0.954601 -0.996384,-0.954591 -1.01713,1.061653 -1.017129,1.061654 0.834117,0.887876 c 0.458762,0.488324 0.935901,0.887877 1.060303,0.887877 z m 28.340222,0 c 0.126894,0 0.606068,-0.399553 1.06483,-0.887877 l 0.834108,-0.887876 -1.015474,-1.059932 -1.015484,-1.059931 -0.819479,0.769857 c -0.450716,0.423426 -0.819489,0.93104 -0.819489,1.128044 0,0.196994 0.346564,0.727064 0.770133,1.177941 0.423579,0.450877 0.873962,0.819774 1.000855,0.819774 z m -19.228698,-8.929768 5.060851,-5.051824 5.06085,5.051824 5.060851,5.051824 0.95109,-0.992723 0.951091,-0.992722 -5.993023,-6.188857 -5.993022,-6.188866 -6.004541,6.198444 -6.004532,6.198425 0.924763,0.983145 0.924772,0.983154 z m -9.137044,0.783249 c 0.110363,0 3.350042,-3.146418 7.19928,-6.992051 l 6.998615,-6.992052 7.071806,7.065177 7.071806,7.065176 0.897607,-0.843258 c 0.493689,-0.463793 0.891567,-1.014704 0.884186,-1.224263 -0.0076,-0.209549 -3.594594,-3.967238 -7.971582,-8.350418 l -7.958161,-7.969413 -6.107713,6.218066 c -3.359249,3.419943 -6.97552,7.122285 -8.036165,8.227434 l -1.928443,2.009358 0.839045,0.893127 c 0.461472,0.491215 0.929347,0.893117 1.039709,0.893117 z"
     style="fill:#000000;stroke-width:0.35419619" />
</svg>
