<?xml version="1.0" encoding="UTF-8" standalone="no"?>
<svg
   xmlns:dc="http://purl.org/dc/elements/1.1/"
   xmlns:cc="http://creativecommons.org/ns#"
   xmlns:rdf="http://www.w3.org/1999/02/22-rdf-syntax-ns#"
   xmlns:svg="http://www.w3.org/2000/svg"
   xmlns="http://www.w3.org/2000/svg"
   version="1.1"
   id="svg3908"
   width="100"
   height="100"
   viewBox="0 0 100 100">
  <metadata
     id="metadata3914">
    <rdf:RDF>
      <cc:Work
         rdf:about="">
        <dc:format>image/svg+xml</dc:format>
        <dc:type
           rdf:resource="http://purl.org/dc/dcmitype/StillImage" />
        <dc:title></dc:title>
      </cc:Work>
    </rdf:RDF>
  </metadata>
  <defs
     id="defs3912" />
  <path
     style="fill:#6aad21;fill-opacity:1;stroke-width:0.26657119"
     d="M 14.657293,82.005846 C 12.547459,81.213763 11.024833,79.952823 10.301099,78.398315 9.6848389,77.074678 9.6515739,76.74429 9.6490999,71.924336 c -0.0021,-4.955386 0.01452,-5.113502 0.6998271,-6.488762 0.806579,-1.618591 2.106673,-2.674141 4.32382,-3.51053 2.027819,-0.764971 5.193726,-0.640388 7.093206,0.279135 1.883787,0.911929 3.23275,2.37311 3.726833,4.036877 0.505463,1.702073 0.570003,6.368498 0.09464,6.843842 -0.22878,0.228776 -1.937089,0.319885 -5.997854,0.319885 h -5.677968 v 1.273541 c 0,3.467145 4.044351,4.889205 7.172338,2.521908 l 0.907903,-0.687115 1.710104,0.911616 c 0.940566,0.501389 1.765644,0.996729 1.833509,1.10075 0.255302,0.391297 -1.86545,2.355322 -3.302423,3.058366 -1.950682,0.954381 -5.614127,1.158443 -7.575769,0.421997 z M 21.642194,68.71313 c 0,-2.032772 -2.558229,-3.447304 -5.030573,-2.781569 -1.602866,0.431605 -2.437861,1.263547 -2.618287,2.608714 l -0.151902,1.132512 h 3.900385 3.900377 z m 28.755203,13.486662 c -2.731644,-0.467799 -5.093662,-2.058116 -6.078539,-4.092605 -0.498556,-1.029881 -0.550697,-1.621212 -0.545393,-6.186063 0.0065,-5.715221 0.197816,-6.500581 1.958985,-8.046911 1.418312,-1.245288 2.820384,-1.885738 4.914367,-2.244815 1.572312,-0.269623 2.109586,-0.249559 3.677328,0.137318 2.389593,0.589694 4.387674,1.920377 5.355309,3.566532 l 0.748846,1.273971 v 5.352327 5.352329 l -0.809278,1.311952 c -1.611266,2.612051 -5.666848,4.184728 -9.221625,3.575965 z m 4.161282,-4.873112 c 0.583673,-0.330575 1.211677,-0.898396 1.395565,-1.261827 0.402903,-0.796279 0.470616,-7.352474 0.08636,-8.363099 -0.856762,-2.253481 -6.525632,-2.351866 -7.670726,-0.133128 -0.449675,0.871283 -0.448954,7.59391 7.97e-4,8.50187 0.181609,0.366535 0.865022,0.93633 1.518699,1.266212 1.552157,0.783304 3.274986,0.779604 4.669185,-0.01001 z m 8.457484,-2.810553 0.07787,-7.95208 0.80929,-1.311269 c 0.875294,-1.418223 2.880602,-2.823759 4.788705,-3.356452 1.224981,-0.341979 4.259444,-0.448377 4.548418,-0.159485 0.107012,0.106959 -0.311367,0.743314 -0.929692,1.414114 -0.618325,0.670802 -1.24136,1.555654 -1.384519,1.966346 -0.187719,0.538463 -0.539997,0.830502 -1.263226,1.047185 -0.551591,0.165264 -1.29562,0.61184 -1.653373,0.992391 l -0.65046,0.691912 -0.08228,7.309708 -0.08227,7.309707 h -2.128118 -2.12811 z m 16.471981,7.665091 c -2.658446,-0.52975 -4.719841,-1.830103 -5.79167,-3.653444 l -0.739318,-1.257708 v -5.331424 -5.331423 l 0.748846,-1.273971 c 1.423109,-2.421017 5.280294,-4.181876 8.366035,-3.819209 3.183376,0.374144 5.919989,2.036278 6.989238,4.245055 0.504109,1.041335 0.55658,1.623963 0.55658,6.179548 0,4.555584 -0.0525,5.138214 -0.55658,6.179547 -1.42068,2.934736 -5.834466,4.808039 -9.573131,4.063029 z m 3.829093,-4.612277 c 0.483823,-0.202155 1.139736,-0.698161 1.457577,-1.102236 0.533061,-0.677674 0.577898,-1.037553 0.577898,-4.637983 0,-2.997202 -0.09067,-4.032769 -0.390631,-4.461012 -1.49578,-2.135529 -6.783204,-1.808066 -7.577083,0.469265 -0.446191,1.279966 -0.380274,6.982632 0.09378,8.117338 0.695803,1.665313 3.717251,2.500902 5.8384,1.614628 z M 32.571611,74.166522 v -8.035111 l -1.532775,0.168642 c -0.84304,0.09275 -1.965063,0.242643 -2.493401,0.333091 -0.894986,0.153215 -0.971014,0.112423 -1.112936,-0.597166 -0.08378,-0.418888 -0.467152,-1.22552 -0.851922,-1.792511 -0.384771,-0.566991 -0.64705,-1.083435 -0.582845,-1.147646 0.06421,-0.06421 1.239725,-0.348464 2.612253,-0.631671 3.423126,-0.706334 9.031843,-0.706334 12.454979,0 1.372517,0.283207 2.557028,0.576456 2.632236,0.651664 0.07518,0.07522 -0.167767,0.498635 -0.539942,0.940947 -0.372177,0.442311 -0.820325,1.239418 -0.995879,1.771352 -0.297235,0.900613 -0.376746,0.955484 -1.155837,0.797594 -0.460152,-0.09325 -1.526399,-0.242619 -2.369428,-0.331923 l -1.532788,-0.162373 v 8.035111 8.03511 H 34.837469 32.571611 Z M 45.199799,56.349895 c -4.297966,-1.12683 -7.919176,-3.914359 -9.184198,-7.069805 -0.620099,-1.546766 -0.643942,-1.865426 -0.724238,-9.678411 -0.09206,-8.959583 0.03249,-9.925453 1.59752,-12.384505 2.325882,-3.654608 7.379203,-6.060346 12.729919,-6.060346 4.39987,0 8.230167,1.541049 10.88544,4.379547 2.475558,2.646377 2.799949,3.718251 2.932548,9.68987 0.09249,4.165024 0.0455,4.968369 -0.323359,5.531354 l -0.431565,0.65864 H 52.665072 42.648268 l 0.09314,2.352622 c 0.119563,3.019156 0.7828,4.157769 3.078503,5.285043 1.355933,0.665815 1.841843,0.758699 3.945516,0.754213 2.107544,-0.0045 2.573568,-0.09633 3.834245,-0.755607 0.789318,-0.412769 1.763524,-1.110061 2.164931,-1.549535 l 0.729811,-0.799046 1.433788,0.721188 c 0.788587,0.396652 2.246219,1.193092 3.239182,1.769864 l 1.805395,1.048681 -0.472541,0.815125 c -0.661456,1.14099 -2.823346,2.981784 -4.637526,3.948737 -3.439784,1.833387 -8.673788,2.388233 -12.662948,1.342371 z M 56.175624,34.998364 c 0.323316,-0.523126 -0.171573,-3.137922 -0.763033,-4.031592 -0.348718,-0.526899 -1.210203,-1.193558 -2.147703,-1.661984 -2.672654,-1.335416 -6.547348,-0.977616 -8.907472,0.822545 -1.131628,0.863133 -1.656094,2.071727 -1.656094,3.816349 v 1.34142 h 6.64854 c 4.456549,0 6.706984,-0.09454 6.825762,-0.286738 z M 27.937155,35.965731 C 23.262657,34.728807 19.589652,32.218336 18.166049,29.28725 17.417482,27.746027 17.146585,24.602154 17.61306,22.869785 18.233761,20.564665 20.742467,17.050029 28.016526,8.2947667 31.976905,3.5279453 32.953984,2.496842 33.510672,2.496842 c 0.372413,0 0.746309,0.1803381 0.830886,0.4007499 0.08453,0.2204117 -0.504655,1.9298 -1.309407,3.7986398 -1.909728,4.4348733 -3.133633,8.3064623 -3.307315,10.4620253 -0.122081,1.515205 -0.06045,1.849833 0.490749,2.665715 0.864301,1.279272 2.315362,1.926352 4.656762,2.076614 l 1.946715,0.124933 -1.474355,1.629219 C 32.743929,26.5287 31.771904,29.33382 31.771904,33.965367 v 2.652591 l -0.733068,-0.01274 c -0.403194,-0.007 -1.798942,-0.294775 -3.101681,-0.63949 z m 39.555292,-2.000364 c 0,-4.631547 -0.972024,-7.436667 -3.572813,-10.310629 l -1.474356,-1.629219 1.946715,-0.124933 c 2.341399,-0.150262 3.792471,-0.797342 4.656763,-2.076614 0.551225,-0.815882 0.612829,-1.15051 0.490748,-2.665715 C 69.365833,15.002694 68.141928,11.131105 66.23219,6.6962317 65.427438,4.8273919 64.838205,3.1180036 64.922783,2.8975919 65.007433,2.6771801 65.381268,2.496842 65.753668,2.496842 c 0.556764,0 1.532779,1.0304414 5.49164,5.7979247 5.911287,7.1187213 8.156066,10.0712983 9.484714,12.4753863 0.995812,1.801842 1.02398,1.926159 1.02398,4.518528 0,2.285901 -0.09281,2.855621 -0.651526,3.998569 -1.458728,2.984165 -5.374604,5.603837 -10.12872,6.775973 -3.668316,0.904433 -3.481309,1.017119 -3.481309,-2.097856 z"
     id="path3942" />
</svg>
