<?xml version="1.0" encoding="UTF-8" standalone="no"?>
<!-- Generator: Adobe Illustrator 16.0.0, SVG Export Plug-In . SVG Version: 6.00 Build 0)  -->

<svg
   xmlns:dc="http://purl.org/dc/elements/1.1/"
   xmlns:cc="http://creativecommons.org/ns#"
   xmlns:rdf="http://www.w3.org/1999/02/22-rdf-syntax-ns#"
   xmlns:svg="http://www.w3.org/2000/svg"
   xmlns="http://www.w3.org/2000/svg"
   xmlns:sodipodi="http://sodipodi.sourceforge.net/DTD/sodipodi-0.dtd"
   xmlns:inkscape="http://www.inkscape.org/namespaces/inkscape"
   version="1.1"
   id="Layer_1"
   x="0px"
   y="0px"
   width="100"
   height="100"
   viewBox="0 0 100 100"
   enable-background="new 0 0 1055 680"
   xml:space="preserve"
   inkscape:version="0.92.4 (unknown)"
   sodipodi:docname="gnosis.svg"><metadata
     id="metadata9"><rdf:RDF><cc:Work
         rdf:about=""><dc:format>image/svg+xml</dc:format><dc:type
           rdf:resource="http://purl.org/dc/dcmitype/StillImage" /><dc:title></dc:title></cc:Work></rdf:RDF></metadata><defs
     id="defs7" /><sodipodi:namedview
     pagecolor="#ffffff"
     bordercolor="#666666"
     borderopacity="1"
     objecttolerance="10"
     gridtolerance="10"
     guidetolerance="10"
     inkscape:pageopacity="0"
     inkscape:pageshadow="2"
     inkscape:window-width="1920"
     inkscape:window-height="1017"
     id="namedview5"
     showgrid="false"
     inkscape:zoom="6.6488144"
     inkscape:cx="61.748078"
     inkscape:cy="53.468214"
     inkscape:window-x="0"
     inkscape:window-y="26"
     inkscape:window-maximized="1"
     inkscape:current-layer="Layer_1" /><path
     d="m 16.111393,71.620637 v 6.657949 c -1.735204,1.394106 -4.299527,2.349207 -6.64459,2.349207 -5.056165,0 -8.9885383,-4.000478 -8.9885383,-9.162346 0,-5.16104 3.9820789,-9.1103 9.1597713,-9.1103 2.442679,0 4.885368,0.980943 6.571536,2.530246 l -1.637025,2.244295 c -1.318461,-1.289906 -3.15129,-2.06385 -4.934511,-2.06385 -3.4927472,0 -6.2289732,2.812537 -6.2289732,6.399727 0,3.61315 2.760681,6.426992 6.2534282,6.426992 1.27055,0 2.711654,-0.464625 3.933605,-1.239283 v -5.032637 z m 17.17152,8.878641 -9.111405,-12.956301 V 80.499278 H 21.290309 V 62.43233 h 2.833288 L 33.282806,75.414 V 62.43233 h 2.834405 v 18.066948 z m 25.158929,-9.033831 c 0,5.161751 -3.956285,9.162346 -9.061583,9.162346 -5.105308,0 -9.062146,-4.000478 -9.062146,-9.162346 0,-5.187003 3.956954,-9.1103 9.062146,-9.1103 5.105298,0 9.061583,3.94926 9.061583,9.1103 z m -15.192931,0 c 0,3.588367 2.809271,6.426993 6.155803,6.426993 3.346648,0 6.082321,-2.838626 6.082321,-6.426993 0,-3.587189 -2.735673,-6.374353 -6.082321,-6.374353 -3.371104,0 -6.155803,2.787281 -6.155803,6.374353 z m 30.974177,-7.302779 -1.198166,2.683311 c -1.855615,-1.187233 -3.71257,-1.677704 -5.006905,-1.677704 -1.685052,0 -2.78369,0.671388 -2.78369,1.884113 0,3.948552 9.232369,1.832776 9.208021,8.336352 0,3.225713 -2.686627,5.212968 -6.448233,5.212968 -2.687637,0 -5.226826,-1.160678 -6.986048,-2.864343 l 1.245193,-2.632797 c 1.758776,1.703781 3.958294,2.632797 5.789221,2.632797 2.003723,0 3.200996,-0.799909 3.200996,-2.194142 0,-4.025731 -9.235281,-1.779785 -9.235281,-8.206655 0,-3.096599 2.516404,-5.032639 6.230759,-5.032639 2.221751,0 4.396144,0.74798 5.984133,1.858739 z m 4.689904,16.33661 V 62.43233 h 2.881888 v 18.066948 z m 20.077868,-16.33661 -1.198191,2.683311 c -1.855596,-1.187233 -3.711881,-1.677704 -5.006226,-1.677704 -1.685712,0 -2.783661,0.671388 -2.783661,1.884113 0,3.948552 9.232358,1.832776 9.207788,8.336352 0,3.225713 -2.687102,5.212968 -6.448698,5.212968 -2.687064,0 -5.226147,-1.160678 -6.986039,-2.864343 l 1.245882,-2.632797 c 1.758068,1.703781 3.958275,2.632797 5.788775,2.632797 2.002928,0 3.200987,-0.799909 3.200987,-2.194142 0,-4.025731 -9.234175,-1.779785 -9.234175,-8.206655 0,-3.096599 2.515763,-5.032639 6.229429,-5.032639 2.222886,0 4.396823,0.74798 5.984129,1.858739 z m -35.4503,-38.290141 -1.21838,1.288489 c 0.981701,1.607958 1.269425,3.663192 0.610413,5.60348 -1.125451,3.312213 -4.578876,5.035116 -7.712738,3.846586 -0.442654,-0.166756 -0.85537,-0.384257 -1.234809,-0.641767 l -3.926007,4.146935 -3.457113,-3.652687 c -1.579168,1.116305 -3.619632,1.457959 -5.544944,0.727681 -3.225014,-1.221929 -4.900003,-4.973396 -3.74473,-8.378841 0.17659,-0.519503 0.409814,-0.99888 0.687601,-1.437543 l -1.473274,-1.55662 -0.284716,0.491651 c -1.544649,2.664311 -2.364278,5.726333 -2.371314,8.855859 -0.0163,9.406164 7.21179,17.072311 16.113766,17.090131 h 0.03144 c 8.883994,0 16.126158,-7.637706 16.142918,-17.024042 0.0058,-3.129998 -0.80221,-6.196505 -2.333894,-8.866363 z m -23.716592,3.430347 c -0.425681,0.583702 -0.681681,1.313863 -0.681681,2.107632 0,1.912437 1.466345,3.46174 3.276389,3.46174 0.751824,0 1.441773,-0.270609 1.994785,-0.720365 z m 16.14939,4.564945 c 0.523967,0.373754 1.152934,0.591138 1.832937,0.591138 1.808248,0 3.275826,-1.549894 3.275826,-3.461739 0,-0.717178 -0.206411,-1.383138 -0.559591,-1.935921 z m -5.888632,3.661893 -13.323137,-14.129367 0.519163,-0.582641 c 3.313255,-3.718776 7.796408,-5.766457 12.622134,-5.766457 h 0.0327 c 4.876663,0.0099 9.549818,2.20712 12.824528,6.029041 l 0.500404,0.582641 z M 38.949937,23.381226 50.08886,35.194192 61.08871,23.617846 C 58.144957,20.494574 54.121207,18.711838 49.932154,18.703105 h -0.02921 c -4.137571,0 -7.9969,1.654337 -10.952949,4.678121 z M 35.395208,46.62703 33.82654,46.518338 C 27.194798,46.063035 18.046643,44.337181 12.126956,38.702664 8.500289,35.251429 7.8063225,31.971315 7.7788495,31.832884 L 7.5787945,30.84014 H 31.712915 l -0.119848,0.932201 c -0.109912,0.861747 -0.16609,1.732699 -0.168332,2.587719 -0.0068,3.887891 1.065246,7.65116 3.0998,10.883831 z m 29.234616,0 0.870673,-1.383139 c 2.023384,-3.212254 3.097344,-6.95015 3.103933,-10.808419 9.71e-4,-0.88712 -0.05493,-1.782737 -0.165983,-2.663012 l -0.119295,-0.932203 h 24.1312 l -0.199385,0.992744 c -0.02746,0.138432 -0.7221,3.418546 -4.349213,6.869781 -5.919677,5.634399 -15.070288,7.360253 -21.703156,7.815673 z"
     id="path3"
     inkscape:connector-curvature="0"
     style="fill:#00a6c4;stroke-width:0.09614875" /></svg>