<?xml version="1.0" encoding="UTF-8" standalone="no"?>
<!-- Created with Inkscape (http://www.inkscape.org/) -->

<svg
   xmlns:dc="http://purl.org/dc/elements/1.1/"
   xmlns:cc="http://creativecommons.org/ns#"
   xmlns:rdf="http://www.w3.org/1999/02/22-rdf-syntax-ns#"
   xmlns:svg="http://www.w3.org/2000/svg"
   xmlns="http://www.w3.org/2000/svg"
   xmlns:sodipodi="http://sodipodi.sourceforge.net/DTD/sodipodi-0.dtd"
   xmlns:inkscape="http://www.inkscape.org/namespaces/inkscape"
   version="1.1"
   id="svg45"
   width="3660"
   height="1784"
   viewBox="0 0 3660 1784"
   sodipodi:docname="dOrg.svg"
   inkscape:version="0.92.4 (unknown)">
  <metadata
     id="metadata51">
    <rdf:RDF>
      <cc:Work
         rdf:about="">
        <dc:format>image/svg+xml</dc:format>
        <dc:type
           rdf:resource="http://purl.org/dc/dcmitype/StillImage" />
        <dc:title></dc:title>
      </cc:Work>
    </rdf:RDF>
  </metadata>
  <defs
     id="defs49" />
  <sodipodi:namedview
     pagecolor="#ffffff"
     bordercolor="#666666"
     borderopacity="1"
     objecttolerance="10"
     gridtolerance="10"
     guidetolerance="10"
     inkscape:pageopacity="0"
     inkscape:pageshadow="2"
     inkscape:window-width="1920"
     inkscape:window-height="1017"
     id="namedview47"
     showgrid="false"
     inkscape:pagecheckerboard="true"
     inkscape:zoom="0.32858269"
     inkscape:cx="1839.7177"
     inkscape:cy="893.24229"
     inkscape:window-x="0"
     inkscape:window-y="26"
     inkscape:window-maximized="1"
     inkscape:current-layer="svg45" />
  <path
     style="fill:#000000;stroke-width:0.98464042"
     d="m 3190.92,1770.8391 -9.8464,-0.9272 -15.2619,-1.9992 -15.262,-1.9991 -16.7389,-3.3687 -16.7389,-3.3685 -14.049,-3.9847 -14.049,-3.9846 -12.3842,-4.4891 -12.3842,-4.4891 -10.4907,-4.473 -10.4909,-4.4729 -14.2773,-7.2433 -14.2773,-7.2433 -10.7817,-6.4973 -10.7817,-6.4973 -10.388,-7.0037 -10.3881,-7.0037 -11.3234,-8.601 -11.3233,-8.6009 -8.8618,-7.5502 -8.8618,-7.5501 -12.1324,-11.3896 -12.1324,-11.3895 -11.3103,-12.2745 -11.3103,-12.2745 1.7806,-1.9895 1.7807,-1.9897 53.6629,-42.9856 53.6629,-42.9857 18.5282,-14.6184 18.5282,-14.6183 3.7679,2.8357 3.7679,2.8358 10.508,8.5218 10.5078,8.5218 11.5049,7.8537 11.5047,7.8538 14.2503,8.1704 14.2503,8.1706 14.7966,7.1006 14.7966,7.1007 9.7924,3.6423 9.7924,3.6422 10.8851,2.8057 10.885,2.8056 10.831,1.7248 10.8311,1.7249 20.1851,-0.014 20.1851,-0.014 9.8465,-1.2314 9.8464,-1.2315 12.8003,-2.4689 12.8003,-2.4691 14.7696,-4.8516 14.7696,-4.8517 11.9604,-5.861 11.9602,-5.861 11.8583,-7.9266 11.8582,-7.9265 10.7806,-10.3304 10.7806,-10.3303 5.4016,-6.6436 5.4017,-6.6436 5.158,-7.7217 5.1581,-7.7219 5.2267,-10.494 5.2267,-10.4941 3.4975,-9.4877 3.4975,-9.4878 2.5117,-9.6669 2.5117,-9.667 1.9849,-10.8768 1.9851,-10.8768 0.9819,-17.7236 0.9819,-17.7235 -0.2832,-46.7704 -0.2832,-46.7704 -12.8004,12.3895 -12.8003,12.3894 -7.8771,6.8299 -7.8771,6.8299 -7.9888,6.077 -7.9887,6.077 -9.7348,6.2972 -9.7348,6.2973 -10.831,6.0125 -10.8311,6.0125 -11.3233,5.0424 -11.3234,5.0423 -12.308,4.466 -12.308,4.466 -14.8662,3.7956 -14.8663,3.7956 -11.2365,1.9511 -11.2366,1.9513 -14.2675,1.7176 -14.2674,1.7177 -22.1544,-0.015 -22.1544,-0.015 -14.2773,-1.6829 -14.2773,-1.6829 -14.7696,-2.9504 -14.7696,-2.9505 -10.3388,-2.9458 -10.3387,-2.946 -8.3694,-2.9836 -8.3695,-2.9837 -10.831,-5.1051 -10.8311,-5.1051 -9.8464,-5.3144 -9.8464,-5.3145 -12.4914,-7.7523 -12.4914,-7.7523 -11.14,-7.9576 -11.1399,-7.9576 -9.2969,-7.5335 -9.2969,-7.5334 -9.9476,-9.8464 -9.9477,-9.8464 -7.4784,-9.3541 -7.4784,-9.354 -7.0469,-10.8311 -7.0468,-10.831 -6.8468,-13.4726 -6.8468,-13.4725 -4.9742,-12.6204 -4.9743,-12.6205 -4.4197,-15.1992 -4.4198,-15.1993 -2.8647,-14.3399 -2.8648,-14.34 -1.4939,-10.3387 -1.494,-10.3388 -1.4685,-14.2772 -1.4684,-14.2773 -1.4887,-22.1544 -1.4889,-22.1544 -1.1962,-28.0623 -1.1961,-28.06227 0.01,-79.26355 0.01,-79.26356 1.1767,-29.04689 1.1768,-29.0469 0.9832,-15.75424 0.9833,-15.75425 1.4948,-17.23121 1.4948,-17.23121 2.4032,-16.73888 2.4032,-16.73889 2.5066,-12.30801 2.5066,-12.308 2.9703,-10.70511 2.9702,-10.7051 4.4471,-12.43395 4.4469,-12.43394 8.2903,-16.85953 8.2902,-16.85952 9.1545,-13.71282 9.1545,-13.71281 6.3547,-7.82864 6.3547,-7.82864 10.3628,-10.69599 10.3629,-10.69598 8.8617,-7.61494 8.8618,-7.61495 10.5217,-7.78204 10.5216,-7.78204 9.8739,-6.15362 9.8738,-6.15362 10.109,-5.52063 10.109,-5.52062 9.691,-4.35547 9.691,-4.35547 12.9751,-4.44559 12.9751,-4.4456 9.3541,-2.3532 9.354,-2.35321 10.3388,-1.96863 10.3387,-1.96863 11.3234,-1.5856 11.3233,-1.5856 20.6775,-0.88184 20.6774,-0.88183 18.7082,0.89403 18.7082,0.89403 14.7615,2.50364 14.7614,2.50365 12.8085,3.37617 12.8084,3.37617 10.2927,3.58956 10.2926,3.58957 12.1599,5.26151 12.1599,5.26152 11.4781,6.22413 11.478,6.22413 12.8399,8.44474 12.8398,8.44474 9.8464,7.69169 9.8464,7.69169 7.3848,6.50166 7.3848,6.50165 11.4708,11.15146 11.4709,11.15146 0.4878,-0.80409 0.4878,-0.80409 0.7264,-48.98586 0.7263,-48.98586 h 95.8716 95.8716 l -6e-4,470.41197 -6e-4,470.41195 -0.9833,18.2159 -0.9835,18.2158 -1.0529,10.8311 -1.053,10.831 -2.4296,17.4998 -2.4296,17.4999 -2.838,14.0086 -2.8379,14.0087 -2.501,9.8464 -2.5009,9.8464 -3.3645,10.9442 -3.3644,10.9442 -4.6954,12.6872 -4.6952,12.6872 -5.6729,12.4867 -5.673,12.4868 -5.6561,10.1599 -5.6563,10.16 -8.1263,12.308 -8.1265,12.308 -8.3475,10.3647 -8.3476,10.3647 -9.7177,10.2348 -9.7178,10.2349 -11.36,9.982 -11.3601,9.982 -11.779,8.8763 -11.779,8.8763 -8.8617,5.9198 -8.8618,5.9197 -11.3233,6.711 -11.3234,6.7109 -14.2773,7.1168 -14.2773,7.1168 -7.1765,3.1255 -7.1767,3.1253 -11.5315,4.4609 -11.5316,4.4609 -15.7543,4.7391 -15.7542,4.7393 -13.2927,3.0034 -13.2926,3.0033 -8.8618,1.5083 -8.8617,1.5081 -10.8311,1.4689 -10.831,1.469 -11.8157,1.0224 -11.8157,1.0223 -23.6314,0.4238 -23.6313,0.4239 -9.8464,-0.9272 z m 91.0792,-581.8244 6.4002,-1.0341 8.8618,-2.1056 8.8617,-2.1057 9.9407,-3.8096 9.9408,-3.8096 12.2137,-6.9838 12.2136,-6.9837 10.3388,-6.9226 10.3387,-6.9227 7.4474,-6.1964 7.4475,-6.1963 6.3485,-6.7298 6.3485,-6.7297 4.6762,-6.0772 4.6764,-6.0772 5.0855,-8.1847 5.0855,-8.1848 3.6495,-8.3964 3.6496,-8.3962 3.1192,-9.7378 3.1193,-9.7377 1.8896,-11.4052 1.8896,-11.4052 1.0075,-13.1437 1.0075,-13.1437 1.1185,-42.9808 1.1186,-42.98079 -0.6173,-60.55539 -0.6173,-60.55538 -0.9684,-18.21585 -0.9684,-18.21585 -1.0717,-11.32337 -1.0719,-11.32336 -1.9867,-9.26367 -1.9867,-9.26366 -3.4327,-9.8618 -3.4326,-9.86182 -3.4989,-6.96749 -3.4988,-6.9675 -4.9345,-7.38481 -4.9346,-7.3848 -6.2075,-7.46324 -6.2075,-7.46324 -11.7638,-11.34168 -11.7638,-11.34169 -9.2147,-6.91312 -9.2148,-6.91312 -6.8295,-4.16885 -6.8295,-4.16885 -7.4478,-3.24603 -7.4478,-3.24602 -9.5839,-3.04361 -9.5839,-3.04362 -12.0781,-2.42421 -12.0782,-2.42421 -12.8004,-1.15251 -12.8003,-1.15249 -13.2804,0.65051 -13.2804,0.65052 -6.9048,0.97692 -6.9046,0.97692 -11.011,2.46714 -11.0109,2.46714 -9.1742,3.02746 -9.1742,3.02748 -7.2814,3.34001 -7.2813,3.34003 -6.5037,4.07714 -6.5035,4.07713 -11.2366,8.40587 -11.2364,8.40586 -9.766,9.37367 -9.7661,9.37367 -6.156,7.43451 -6.156,7.43451 -3.9702,5.90784 -3.9702,5.90784 -3.4666,6.89249 -3.4666,6.89248 -3.1473,8.86176 -3.1472,8.86177 -2.3502,11.32336 -2.35,11.32337 -1.4876,11.81568 -1.4876,11.81569 -1.0079,14.27729 -1.0079,14.27728 -0.967,30.52386 -0.967,30.52385 v 42.83186 42.83186 l 0.9611,27.07761 0.9612,27.07765 1.023,13.7849 1.0228,13.785 1.4844,11.8157 1.4842,11.8157 2.4948,11.1592 2.4949,11.1592 2.463,7.549 2.4631,7.5489 3.7318,7.9662 3.7317,7.966 5.4589,8.2805 5.459,8.2805 7.088,8.1806 7.088,8.1807 7.5296,6.4561 7.5295,6.456 13.785,9.1156 13.785,9.1156 11.8157,6.5429 11.8157,6.5428 9.8464,3.819 9.8464,3.8192 8.3694,2.0044 8.3694,2.0044 7.8772,1.0451 7.8771,1.045 2.9539,0.4228 2.9539,0.4228 21.1698,-0.3737 21.1698,-0.3738 6.4001,-1.0341 z m -2956.3666,193.4087 -13.76872,-1.4354 -14.14087,-2.4727 -14.14087,-2.4728 -11.47603,-2.8996 -11.47602,-2.8996 -13.29265,-4.5343 -13.29264,-4.5342 -15.75425,-7.6539 -15.75425,-7.654 -12.72176,-7.5933 -12.72177,-7.5933 -9.14169,-6.3735 -9.14169,-6.3737 -8.66039,-7.0488 -8.66041,-7.0488 -9.41261,-8.6516 -9.41261,-8.6518 -9.9671,-11.114 -9.96712,-11.1141 -6.62381,-8.3695 -6.6238,-8.3694 -6.24007,-9.4828 -6.24008,-9.4828 -6.351084,-13.1639 -6.351088,-13.164 -4.047827,-11.8157 -4.047828,-11.8157 -3.340284,-12.8003 -3.340284,-12.8003 -2.959564,-15.2619 -2.959563,-15.262 -2.454975,-18.2158 -2.454974,-18.2159 -1.491455,-16.2465 -1.491464,-16.2466 -0.990725,-15.2619 -0.990736,-15.2619 -1.242675,-26.5854 -1.242685,-26.58525 v -77.78659 -77.7866 l 1.237909,-26.58529 1.2379,-26.58529 0.987171,-14.76961 0.987171,-14.76961 1.467163,-16.24656 1.467164,-16.24657 1.503231,-11.81569 1.503231,-11.81568 2.463925,-14.76961 2.463924,-14.7696 3.007191,-13.29265 3.00718,-13.29265 4.947838,-15.10835 4.947838,-15.10835 7.657972,-15.4155 7.657963,-15.4155 5.15162,-7.87713 5.15163,-7.87712 12.34329,-16.24657 12.34331,-16.24657 7.59176,-8.86176 7.59176,-8.86176 9.22474,-8.86794 9.22474,-8.86793 7.87712,-6.32299 7.87712,-6.32298 11.50523,-7.54541 11.50523,-7.5454 13.6031,-6.97201 13.60311,-6.97201 10.83104,-4.40448 10.83105,-4.40448 11.3077,-3.63009 11.30771,-3.63008 11.97743,-2.86241 11.97741,-2.86241 15.11585,-2.428 15.11585,-2.42801 11.81569,-1.20192 11.81568,-1.20193 24.12369,0.0307 24.12369,0.0307 13.20798,1.62677 13.20798,1.62677 11.91475,2.41246 11.91474,2.41246 12.29362,3.57203 12.29361,3.57204 11.32336,4.46934 11.32337,4.46935 8.52556,4.27252 8.52558,4.27253 8.70563,5.1237 8.70564,5.1237 11.81569,7.87206 11.81568,7.87207 9.35409,6.89865 9.35408,6.89865 9.84641,7.95674 9.8464,7.95674 12.76305,11.11951 12.76303,11.1195 0.63142,-1.76514 0.63141,-1.76516 0.63468,-164.43495 0.63468,-164.43495 0.002,-77.04811 0.002,-77.048212 h 96.01513 96.01511 l -0.25883,671.442752 -0.25884,671.44282 -0.82033,0.8205 -0.82034,0.8205 -94.80271,0.2605 -94.80272,0.2607 -0.72696,-48.508 -0.72695,-48.508 -0.47854,-0.7862 -0.47852,-0.7862 -14.43966,14.0789 -14.43966,14.0788 -12.12507,9.7192 -12.12507,9.7193 -10.86881,7.2616 -10.8688,7.2618 -12.44936,6.8516 -12.44935,6.8516 -11.75918,5.038 -11.75919,5.038 -12.3645,4.2312 -12.36451,4.2312 -13.78497,3.5333 -13.78497,3.5332 -11.81568,2.0085 -11.81569,2.0083 -12.80032,1.5172 -12.80033,1.5172 -19.20049,0.4163 -19.20049,0.4164 z m 113.70973,-192.4654 13.29264,-0.9855 10.83105,-2.0414 10.83104,-2.0413 10.83105,-3.4734 10.83104,-3.4734 9.49694,-4.7244 9.49695,-4.7244 5.27266,-3.3815 5.27267,-3.3815 7.58716,-6.1136 7.58716,-6.1137 7.5191,-8.0785 7.5191,-8.0786 5.21813,-7.8771 5.21814,-7.8772 3.67758,-7.3611 3.67759,-7.3612 5.17659,-13.3163 5.1766,-13.3163 3.48403,-10.831 3.48404,-10.8311 2.59325,-10.2416 2.59325,-10.2417 2.37204,-14.0022 2.37204,-14.0022 1.20739,-15.6341 1.20737,-15.63405 -0.0212,-85.17139 -0.0212,-85.1714 -1.22326,-13.78497 -1.22325,-13.78497 -2.42141,-13.29264 -2.42142,-13.29265 -2.50958,-9.35408 -2.50958,-9.35409 -4.41118,-13.5553 -4.41119,-13.55528 -4.85404,-11.80866 -4.85404,-11.80864 -3.07132,-6.14455 -3.07132,-6.14455 -5.50546,-8.36945 -5.50546,-8.36944 -10.88592,-10.83105 -10.88592,-10.83104 -8.85511,-6.02659 -8.85512,-6.02659 -6.11688,-3.07678 -6.11689,-3.07676 -7.61804,-3.02622 -7.61803,-3.0262 -10.98556,-2.83251 -10.98554,-2.8325 -11.71123,-1.74159 -11.71122,-1.74159 -29.53921,-0.028 -29.53922,-0.028 -11.32336,1.77914 -11.32337,1.77914 -9.85184,2.32081 -9.85183,2.32079 -8.21388,2.9977 -8.21388,2.9977 -7.53494,4.05853 -7.53493,4.05853 -7.80162,5.57545 -7.80161,5.57545 -8.97378,8.86176 -8.97377,8.86177 -5.49281,7.3848 -5.49282,7.3848 -5.06553,8.83783 -5.06554,8.83783 -4.82505,12.33194 -4.82504,12.33194 -3.00298,9.84641 -3.00296,9.8464 -2.49437,10.32324 -2.49436,10.32323 -2.44219,15.76974 -2.44218,15.76973 -1.46861,15.26193 -1.46861,15.26193 -1.21862,18.21585 -1.21863,18.21584 0.0147,47.75507 0.0147,47.75506 1.18283,17.72353 1.18283,17.72352 1.51138,15.26194 1.51137,15.2619 2.38123,15.4888 2.38123,15.4888 2.59295,11.5888 2.59297,11.5889 3.42442,11.3233 3.42442,11.3234 4.30962,10.7367 4.30962,10.7367 4.61968,7.9715 4.61969,7.9714 5.33387,7.1058 5.33386,7.1058 6.99757,7.4929 6.99756,7.493 10.05668,8.0479 10.05666,8.0481 8.13157,4.8273 8.13157,4.8272 7.98335,3.378 7.98333,3.3779 11.32337,2.8154 11.32336,2.8154 10.33873,1.5183 10.33872,1.5184 3.93856,0.342 3.93857,0.342 16.73888,0.1632 16.73889,0.163 13.29265,-0.9854 z m 1004.33317,193.3438 -3.4462,-0.3208 -13.785,-1.0575 -13.785,-1.0575 -18.2158,-2.4351 -18.2159,-2.4351 -14.7696,-2.9521 -14.7696,-2.952 -14.7843,-3.8667 -14.7844,-3.8667 -12.2933,-4.0602 -12.2932,-4.06 -13.785,-5.4356 -13.7849,-5.4356 -16.2962,-8.1304 -16.2962,-8.1306 -10.2891,-6.2038 -10.2891,-6.2039 -11.8157,-7.8939 -11.8156,-7.894 -11.8157,-8.5633 -11.8157,-8.5633 -11.3233,-9.0563 -11.3234,-9.0564 -13.4533,-12.2908 -13.4534,-12.2908 -9.7357,-10.5318 -9.7358,-10.5317 -6.3795,-7.3848 -6.3796,-7.3848 -7.4876,-9.8947 -7.4877,-9.8947 -6.9882,-10.6029 -6.9881,-10.603 -5.6409,-10.0263 -5.6408,-10.0262 -9.0547,-19.2004 -9.0549,-19.2005 -4.5289,-10.6427 -4.5289,-10.6427 -3.4751,-9.9835 -3.475,-9.9833 -2.8693,-11.3748 -2.8694,-11.3747 -2.5124,-12.6382 -2.5125,-12.6383 -2.4457,-18.0402 -2.4458,-18.04024 -1.9301,-22.98442 -1.9301,-22.98443 -1.0605,-20.18512 -1.0606,-20.18513 -1.023,-25.10834 -1.023,-25.10833 -0.5488,-101.91028 -0.5487,-101.91029 1.1154,-55.60646 1.1154,-55.60647 0.9985,-22.18013 0.9986,-22.18013 1.4652,-21.16977 1.4652,-21.16977 1.4949,-14.7696 1.495,-14.76961 2.4116,-15.59935 2.4116,-15.59936 3.5213,-15.76705 3.5212,-15.76705 4.3761,-14.66814 4.376,-14.66814 5.4647,-14.02852 5.4646,-14.02853 8.1412,-15.75424 8.1411,-15.75425 10.0438,-16.73889 10.0437,-16.73889 9.0853,-12.46899 9.0853,-12.4689 8.8408,-10.67015 8.8407,-10.67006 14.2983,-14.64199 14.2983,-14.6419 11.5027,-10.15854 11.5028,-10.15843 11.6363,-9.24962 11.6363,-9.24961 8.8617,-6.36846 8.8618,-6.36836 9.354,-6.39681 9.3541,-6.396719 9.8464,-5.947425 9.8464,-5.947425 10.3387,-5.511033 10.3387,-5.511131 11.9133,-5.379386 11.9133,-5.379386 14.7617,-5.474896 14.7616,-5.474995 15.1723,-4.344135 15.1723,-4.344135 14.2772,-3.050712 14.2773,-3.050613 11.8157,-1.98021 11.8157,-1.980309 17.2312,-2.002857 17.2312,-2.002955 22.3961,-1.17064 22.3961,-1.17054 22.8973,1.200867 22.8974,1.200966 13.2927,1.488186 13.2926,1.488284 13.2927,2.022156 13.2926,2.022057 14.2773,2.886966 14.2773,2.886966 13.2926,3.489959 13.2927,3.489862 14.4762,4.875447 14.4763,4.875447 13.0233,5.483069 13.0234,5.483069 9.9168,4.974797 9.9167,4.974797 8.8617,4.947031 8.8618,4.94703 15.2619,9.995376 15.2619,9.99539 12.8004,9.69161 12.8003,9.69152 12.308,10.4237 12.308,10.4236 13.6668,13.30506 13.6668,13.30505 10.5986,12.0454 10.5986,12.0454 8.7989,11.58597 8.799,11.58597 4.9498,7.3848 4.9499,7.38481 10.6245,18.21584 10.6244,18.21585 5.4651,9.35409 5.4652,9.35408 5.5799,12.30801 5.5799,12.308 4.6229,13.2895 4.6229,13.2895 3.4021,13.15932 3.4021,13.15932 2.4577,13.30638 2.4575,13.30638 1.932,15.87699 1.932,15.87698 1.4827,20.18513 1.4827,20.18513 0.9966,19.20049 0.9964,19.20049 1.2047,33.47777 1.2046,33.47778 -0.042,133.9111 -0.042,133.9111 -1.1616,34.46241 -1.1616,34.46242 -0.9866,19.69281 -0.9867,19.69281 -1.5076,19.69281 -1.5076,19.69281 -1.5077,13.29264 -1.5077,13.2927 -2.3944,14.2302 -2.3944,14.2303 -3.4774,14.1052 -3.4774,14.1052 -4.3489,13.1499 -4.349,13.1499 -5.8985,13.4509 -5.8985,13.4509 -5.831,10.05 -5.831,10.05 -8.9396,15.4316 -8.9395,15.4316 -5.6023,8.6921 -5.6024,8.6921 -8.0565,10.8413 -8.0565,10.8413 -6.2893,7.3745 -6.2893,7.3746 -9.8137,10.62 -9.8138,10.62 -12.8789,11.6813 -12.879,11.6813 -8.8618,7.3065 -8.8617,7.3066 -12.3081,9.1805 -12.308,9.1804 -9.8464,6.599 -9.8464,6.5991 -7.9657,4.9835 -7.9658,4.9835 -11.727,6.3133 -11.7271,6.3132 -11.2183,5.2008 -11.2183,5.2008 -11.9207,4.7057 -11.9208,4.7056 -13.785,4.4821 -13.7849,4.4819 -13.785,3.4615 -13.7849,3.4614 -12.3081,2.4773 -12.308,2.4772 -12.8003,1.9608 -12.8003,1.9607 -14.2773,1.5154 -14.2773,1.5152 -16.7389,0.9822 -16.7389,0.9822 -11.8156,-0.1481 -11.8157,-0.1481 -3.4463,-0.3208 z m 38.8933,-204.1478 19.6928,-0.9095 12.1816,-2.0964 12.1816,-2.0964 12.2056,-3.3451 12.2055,-3.3452 10.5676,-4.126 10.5676,-4.1258 13.785,-7.0524 13.7849,-7.0523 9.1664,-5.6787 9.1664,-5.6787 10.0341,-7.4385 10.0341,-7.4384 12.8544,-12.8971 12.8543,-12.897 9.9692,-12.4887 9.969,-12.4887 5.9422,-8.8371 5.942,-8.8371 4.902,-9.1981 4.902,-9.198 3.6209,-8.3694 3.6211,-8.3695 3.8786,-11.3233 3.8785,-11.3234 2.908,-11.8157 2.908,-11.81569 1.9012,-11.32336 1.9011,-11.32337 1.5013,-12.80032 1.5012,-12.80033 1.5028,-19.69281 1.5028,-19.69281 0.9565,-19.69281 0.9566,-19.69281 1.1509,-47.75506 1.151,-47.75506 -0.5958,-79.26356 -0.5958,-79.26355 -1.0009,-25.10833 -1.0011,-25.10833 -1.0433,-17.23121 -1.0433,-17.23121 -1.4619,-16.73889 -1.4619,-16.73888 -1.5073,-11.81569 -1.5073,-11.81569 -2.3634,-12.80032 -2.3633,-12.80033 -2.9304,-10.17217 -2.9304,-10.17216 -4.1078,-10.99761 -4.1077,-10.9976 -5.3749,-11.08075 -5.3748,-11.08075 -8.1208,-12.16044 -8.1209,-12.16045 -9.587,-11.94369 -9.5872,-11.94368 -10.5099,-10.96795 -10.5099,-10.96795 -9.3768,-7.85493 -9.3768,-7.85494 -12.308,-8.22159 -12.308,-8.22159 -11.8157,-5.84991 -11.8156,-5.84992 -11.3171,-4.13563 -11.317,-4.13563 -12.9071,-3.30807 -12.9073,-3.30807 -11.7151,-1.97706 -11.7152,-1.97706 -10.1969,-1.02504 -10.1969,-1.02505 h -19.8407 -19.8407 l -12.7942,1.47386 -12.7943,1.47385 -12.7677,2.54675 -12.7676,2.54676 -11.0624,3.35316 -11.0625,3.35316 -10.14,4.02023 -10.14,4.02024 -12.0728,6.28005 -12.0727,6.28004 -11.2086,7.40145 -11.2087,7.40144 -10.6887,8.74199 -10.6887,8.74199 -11.4488,11.89117 -11.4487,11.89117 -8.5007,10.61069 -8.5006,10.61069 -5.6065,8.42077 -5.6064,8.42076 -4.6534,8.86177 -4.6535,8.86176 -4.4212,10.83104 -4.4211,10.83105 -3.4664,11.81568 -3.4663,11.81569 -2.4589,11.81569 -2.4588,11.81568 -1.4925,9.35408 -1.4926,9.35409 -1.9834,17.72353 -1.9833,17.72353 -1.4908,22.15441 -1.4909,22.15441 -1.2366,26.09297 -1.2366,26.09297 v 112.24901 112.24901 l 1.2411,25.60065 1.2412,25.60065 0.9842,15.26193 0.9843,15.26193 1.5093,16.73888 1.5093,16.73889 1.9774,14.27729 1.9775,14.27729 1.9718,10.33872 1.9719,10.33872 2.841,11.32337 2.841,11.3234 4.0486,11.8157 4.0486,11.8157 6.249,12.8003 6.2489,12.8003 5.9094,8.8618 5.9093,8.8617 8.7027,10.8284 8.7026,10.8283 10.3387,10.7429 10.3388,10.7429 8.5232,7.1216 8.5232,7.1215 11.1696,7.4055 11.1696,7.4056 12.8003,7.1503 12.8003,7.1502 10.2791,4.8626 10.2789,4.8626 9.0017,3.2586 9.0018,3.2585 12.2278,2.983 12.2277,2.9829 9.3541,1.6044 9.3541,1.6044 9.8464,0.7657 9.8464,0.7658 7.8771,0.1134 7.8771,0.1133 19.6928,-0.9096 z m -255.8664,-227.18792 -1.8292,-0.47072 0.46,-25.26186 0.4598,-25.26188 1.7262,-5.41552 1.7261,-5.41552 2.7365,-5.42207 2.7364,-5.42207 4.6689,-6.21112 4.669,-6.21111 6.5151,-5.25912 6.5149,-5.25911 7.0247,-3.52181 7.0246,-3.5218 5.7757,-1.56619 5.7757,-1.56619 10.3838,-0.55018 10.3839,-0.55019 8.3243,1.65352 8.3243,1.65353 7.0807,3.32351 7.0806,3.32349 5.9118,4.01465 5.9119,4.01464 h 1.0064 1.0065 l 5.3493,-9.10792 5.3494,-9.10793 15.3603,-27.54835 15.3603,-27.54837 v -41.10503 -41.10503 l -5.7467,-6.67159 -5.7466,-6.67161 -12.5672,-13.03934 -12.5672,-13.03934 -63.6347,-0.25331 -63.6348,-0.25331 -0.8426,-4.9232 -0.8427,-4.9232 0.999,-21.16977 0.9989,-21.16977 1.992,-5.68659 1.9919,-5.6866 3.076,-5.7712 3.0761,-5.77121 4.5993,-5.40833 4.5995,-5.40833 5.4155,-4.62383 5.4155,-4.62381 7.8771,-3.82536 7.8772,-3.82535 6.4001,-1.4559 6.4002,-1.4559 6.8925,-0.64443 6.8924,-0.64442 8.2838,1.14541 8.2838,1.14543 7.7394,2.82454 7.7395,2.82454 6.7411,4.48149 6.7411,4.48149 6.3055,6.68415 6.3055,6.68416 4.1369,7.9516 4.1369,7.9516 1.5926,5.80538 1.5928,5.80539 0.5254,17.72353 0.5254,17.72353 4.4739,4.9232 4.4738,4.9232 17.1466,17.96969 17.1466,17.96969 h 51.9282 51.9282 l 20.7072,-21.9294 20.7071,-21.92941 0.5611,-18.19469 0.5611,-18.1947 1.5638,-5.90784 1.5637,-5.90784 4.0666,-8.30527 4.0666,-8.30527 7.9854,-7.94129 7.9855,-7.94131 5.6333,-3.30308 5.6333,-3.3031 6.1135,-2.46936 6.1136,-2.46937 7.9459,-1.44228 7.946,-1.44229 8.4252,0.49215 8.4254,0.49216 6.3443,1.64077 6.3443,1.64078 6.8925,3.20976 6.8925,3.20975 6.2122,4.70708 6.2123,4.70708 4.8252,5.96332 4.8251,5.96332 3.0381,5.70019 3.0382,5.70019 1.9737,5.6866 1.9736,5.68659 1.0126,21.16977 1.0125,21.16977 -0.6399,5.16936 -0.6399,5.16937 h -63.3578 -63.3576 l -16.1734,16.98504 -16.1733,16.98505 -4.0926,4.54099 -4.0925,4.541 v 35.52976 35.52976 l 11.4433,20.48463 11.4432,20.48464 10.8547,19.04028 10.8546,19.0403 1.243,0.47696 1.2429,0.47696 9.1138,-5.49432 9.1139,-5.49432 7.9618,-2.55088 7.9617,-2.55086 10.3838,-0.52477 10.3839,-0.52476 8.3243,1.6861 8.3243,1.68609 4.9232,2.09285 4.9232,2.09285 5.8907,3.42487 5.8908,3.42485 7.0224,7.02237 7.0223,7.02237 4.0781,7.31966 4.0781,7.31966 2.1243,6.40017 2.1243,6.40016 0.4311,24.39469 0.4311,24.39469 -1.2051,1.45213 -1.2052,1.45211 -68.0657,-0.0982 -68.0659,-0.0982 -2.4616,-0.68835 -2.4616,-0.68835 0.055,-24.07567 0.055,-24.07568 3.5906,-10.75796 3.5906,-10.75796 -10.9372,-19.7659 -10.9372,-19.76589 -12.6889,-22.37194 -12.6889,-22.37195 -1.5056,-1.50558 -1.5056,-1.50559 h -52.0251 -52.0251 l -5.8654,10.09257 -5.8654,10.09256 -15.8877,28.29081 -15.8877,28.29082 -3.0591,6.2034 -3.0591,6.2034 3.2036,9.32229 3.2034,9.32228 0.4642,24.71131 0.4641,24.71131 -5.285,0.63462 -5.2852,0.63463 -64.9863,-0.10566 -64.9862,-0.10566 -1.8292,-0.47073 z m 58.231,-113.99736 -5.6305,-1.43124 -6.1852,-3.12094 -6.1851,-3.12092 -7.1381,-7.13599 -7.1382,-7.13598 -2.9165,-6.26571 -2.9165,-6.26572 -1.5148,-5.86856 -1.515,-5.86855 v -5.39191 -5.3919 l 1.6054,-6.46307 1.6053,-6.46307 2.9627,-5.90784 2.9626,-5.90785 7.0015,-6.99975 7.0016,-6.99976 4.9232,-2.46433 4.9232,-2.46433 5.4155,-1.83577 5.4155,-1.83576 h 9.3541 9.3541 l 5.4155,1.83576 5.4155,1.83577 4.9232,2.46433 4.9232,2.46433 7.0016,6.99976 7.0015,6.99975 2.9342,5.90785 2.9343,5.90784 1.3876,4.9232 1.3876,4.9232 -0.035,8.86177 -0.035,8.86176 -1.8235,5.41553 -1.8236,5.41552 -2.4642,4.9232 -2.4644,4.9232 -6.9997,6.99715 -6.9998,6.99715 -4.3835,2.2322 -4.3835,2.23221 -5.4629,1.90492 -5.4629,1.90492 -8.3694,0.41944 -8.3695,0.41944 -5.6306,-1.43125 z m 335.9774,0.41687 -5.4155,-0.9182 -7.8772,-3.89142 -7.8771,-3.89143 -5.0619,-4.46292 -5.0619,-4.46292 -3.5139,-5.29394 -3.5139,-5.29394 -2.6296,-7.77019 -2.6296,-7.77018 -0.042,-7.87712 -0.042,-7.87712 1.7347,-5.90785 1.7346,-5.90784 3.1128,-5.9077 3.1127,-5.90768 5.9078,-5.92031 5.9079,-5.92031 4.4685,-2.61472 4.4684,-2.61471 6.2798,-2.11552 6.2799,-2.11551 8.9444,-0.0835 8.9446,-0.0835 5.9079,1.71336 5.9078,1.71335 5.6821,3.01464 5.682,3.01464 6.5221,6.91371 6.522,6.9137 3.2397,7.01183 3.2397,7.01184 1.172,6.73001 1.1719,6.73001 -0.6272,6.02784 -0.6272,6.02784 -1.3734,4.52879 -1.3734,4.52877 -2.5689,5.06958 -2.5689,5.06958 -6.3642,6.7463 -6.3642,6.74632 -5.682,3.00806 -5.6821,3.00807 -5.1364,1.50801 -5.1364,1.50799 -6.6793,0.49129 -6.6793,0.49129 -5.4155,-0.91819 z m -336.2547,-284.85112 -4.9232,-1.30091 -3.8148,-1.63633 -3.8147,-1.63633 -6.0968,-4.35059 -6.0968,-4.35058 -4.0665,-5.27088 -4.0664,-5.27089 -3.0017,-6.41447 -3.0017,-6.41447 -1.0997,-5.87143 -1.0998,-5.87143 0.5808,-7.03516 0.5807,-7.03515 2.3353,-6.43346 2.3352,-6.43345 3.1867,-4.96623 3.1869,-4.96622 5.8002,-5.36994 5.8002,-5.36993 6.1764,-3.03303 6.1765,-3.03302 6.8925,-1.45352 6.8924,-1.45352 h 3.4463 3.4462 l 6.8063,1.4419 6.8063,1.44191 6.3519,2.97242 6.3519,2.97243 7.1132,7.13809 7.1132,7.13811 3.605,7.3848 3.605,7.3848 1.1623,7.63097 1.1624,7.63096 -1.1575,7.63096 -1.1573,7.63097 -3.8835,7.90814 -3.8834,7.90815 -4.8029,5.00923 -4.8027,5.00922 -5.3487,3.54703 -5.3487,3.54703 -5.9078,2.06872 -5.9078,2.06871 -9.3541,0.40366 -9.3541,0.40365 z m 332.8085,-0.0546 -4.9233,-1.22322 -6.4001,-3.26103 -6.4002,-3.26103 -7.1305,-7.12842 -7.1305,-7.12841 -3.4173,-7.25793 -3.4172,-7.25792 -0.9722,-7.94863 -0.9723,-7.94864 0.9209,-6.50206 0.9207,-6.50207 2.0252,-5.13788 2.0252,-5.13789 3.4918,-5.26078 3.492,-5.26079 5.0092,-4.50371 5.0092,-4.50373 4.0115,-2.32752 4.0114,-2.32753 6.4002,-2.17975 6.4002,-2.17975 8.8617,-0.0497 8.8618,-0.0497 5.8658,1.74999 5.8658,1.74999 4.7172,2.39039 4.7172,2.39039 6.9157,6.524 6.9159,6.524 3.9233,7.98382 3.9233,7.98381 0.9784,5.30376 0.9785,5.30375 -0.015,5.52729 -0.015,5.52729 -1.487,6.30852 -1.487,6.30853 -3.1755,5.99948 -3.1754,5.99948 -6.4002,6.40017 -6.4002,6.40016 -6.1345,3.24742 -6.1345,3.24743 -6.6658,1.41252 -6.6658,1.41252 -6.4002,-0.0667 -6.4001,-0.0667 -4.9232,-1.22322 z m 550.6705,818.92263 -2.6976,-0.4092 -0.2703,-89.2917 -0.2704,-89.2917 V 885.21739 577.02493 l 0.5038,-80.74051 0.5039,-80.74052 95.6459,-0.25101 95.6458,-0.25102 0.4448,48.4984 0.4449,48.49839 0.7555,1.72312 0.7556,1.72313 h 0.9265 0.9264 l 17.9225,-18.02581 17.9226,-18.0258 10.831,-8.65119 10.831,-8.6512 10.8311,-7.1744 10.831,-7.17442 10.3388,-5.71662 10.3387,-5.71663 11.5577,-5.19159 11.5577,-5.19161 14.2075,-4.90769 14.2075,-4.9077 12.1434,-2.96791 12.1435,-2.96791 11.3234,-1.94583 11.3233,-1.94584 10.8311,-1.26822 10.831,-1.26824 26.093,0.005 26.093,0.005 9.3541,1.21988 9.354,1.21988 9.3541,1.53343 9.3541,1.53343 12.3056,2.90706 12.3057,2.90706 9.8488,3.01904 9.8487,3.01903 10.8311,4.41169 10.831,4.4117 15.7494,8.03191 15.7496,8.03192 14.282,9.53436 14.2821,9.53435 6.6176,5.24775 6.6176,5.24776 0.029,1.25217 0.028,1.25217 -37.3433,44.70963 -37.3433,44.70963 -30.3508,35.58461 -30.3506,35.58461 -1.6957,1.97698 -1.6955,1.97698 -1.2584,-0.71458 -1.2583,-0.71459 -13.7849,-9.15013 -13.785,-9.15015 -11.8157,-5.87191 -11.8157,-5.87192 -9.8464,-3.65839 -9.8464,-3.65839 -10.831,-2.7375 -10.8311,-2.73749 -8.8617,-1.07886 -8.8618,-1.07888 -13.4344,-0.003 -13.4346,-0.003 -10.1968,1.01708 -10.1969,1.01709 -12.0448,2.89896 -12.0447,2.89896 -9.6173,3.57721 -9.6174,3.57721 -8.7089,4.47026 -8.7087,4.47025 -9.2787,6.20359 -9.2786,6.20359 -7.601,6.20276 -7.6009,6.20274 -6.7651,6.37369 -6.765,6.37369 -6.3524,7.9036 -6.3524,7.90359 -4.8896,8.05538 -4.8895,8.05538 -3.4685,7.61098 -3.4684,7.61098 -3.8183,11.42194 -3.8182,11.42194 -3.09,14.75892 -3.09,14.75892 -0.8783,14.27729 -0.8784,14.27728 -0.5504,282.09948 -0.5503,282.0995 -0.5076,10.7915 -0.5076,10.7915 -1.2007,0.7629 -1.2008,0.763 -91.5716,-0.1324 -91.5715,-0.1325 -2.6975,-0.4092 z"
     id="path90"
     inkscape:connector-curvature="0" />
</svg>
