<?xml version="1.0" encoding="UTF-8" standalone="no"?>
<svg
   xmlns:dc="http://purl.org/dc/elements/1.1/"
   xmlns:cc="http://creativecommons.org/ns#"
   xmlns:rdf="http://www.w3.org/1999/02/22-rdf-syntax-ns#"
   xmlns:svg="http://www.w3.org/2000/svg"
   xmlns="http://www.w3.org/2000/svg"
   xmlns:sodipodi="http://sodipodi.sourceforge.net/DTD/sodipodi-0.dtd"
   xmlns:inkscape="http://www.inkscape.org/namespaces/inkscape"
   version="1.1"
   x="0px"
   y="0px"
   viewBox="0 0 100 100"
   xml:space="preserve"
   id="svg3819"
   sodipodi:docname="explorer.svg"
   inkscape:version="0.92.4 (unknown)"
   width="100"
   height="100"><metadata
     id="metadata3825"><rdf:RDF><cc:Work
         rdf:about=""><dc:format>image/svg+xml</dc:format><dc:type
           rdf:resource="http://purl.org/dc/dcmitype/StillImage" /><dc:title></dc:title></cc:Work></rdf:RDF></metadata><defs
     id="defs3823" /><sodipodi:namedview
     pagecolor="#ffffff"
     bordercolor="#666666"
     borderopacity="1"
     objecttolerance="10"
     gridtolerance="10"
     guidetolerance="10"
     inkscape:pageopacity="0"
     inkscape:pageshadow="2"
     inkscape:window-width="1920"
     inkscape:window-height="1017"
     id="namedview3821"
     showgrid="false"
     inkscape:zoom="5.8576692"
     inkscape:cx="13.176921"
     inkscape:cy="55.872269"
     inkscape:window-x="0"
     inkscape:window-y="26"
     inkscape:window-maximized="1"
     inkscape:current-layer="svg3819"
     scale-x="1" /><g
     id="g3817"
     transform="matrix(0.36735216,0,0,0.36735216,0.136562,2.2104369)"><path
       d="m 170.94,76.485 c 0.632,0.451 1.014,1.294 1.357,2.063 0.151,0.338 0.395,0.881 0.557,1.084 0.363,-0.009 0.789,-0.162 1.167,-0.298 0.814,-0.293 1.738,-0.548 2.446,-0.242 1.27,0.552 2.486,1.487 3.099,1.995 0.308,0.255 0.567,0.568 0.789,0.903 0.381,-0.039 0.771,-0.074 1.172,-0.074 l 0.214,0.003 c 0.499,0.016 0.998,0.079 1.481,0.141 0.502,0.063 0.979,0.124 1.438,0.132 0.189,-0.121 0.554,-0.567 0.777,-0.841 0.608,-0.746 1.297,-1.59 2.27,-1.605 0.002,0 0.005,0 0.007,0 0.609,0 1.113,0.076 1.602,0.149 0.015,0.002 0.029,0.004 0.044,0.006 0.46,-0.246 0.935,-0.475 1.398,-0.677 0.176,-0.077 0.365,-0.116 0.562,-0.116 0.706,0 1.305,0.496 1.938,1.021 0.058,0.048 0.136,0.112 0.212,0.173 0.022,0 0.047,0.005 0.069,0.005 l 0.127,-0.002 c 0.002,0 0.004,0 0.006,0 0.45,0 0.842,0.113 1.201,0.267 0.052,-0.053 0.102,-0.106 0.147,-0.152 0.527,-0.547 1.244,-1.292 2.263,-1.343 0.192,-0.123 0.563,-0.604 0.791,-0.899 0.607,-0.788 1.296,-1.682 2.299,-1.717 h 0.001 c 1.041,0 1.697,0.949 2.361,2.007 0.72,0.092 1.252,0.631 1.737,1.33 0.139,-0.044 0.278,-0.088 0.424,-0.138 0.542,-0.184 1.155,-0.393 1.812,-0.428 l 0.131,-0.003 c 0.731,0 1.386,0.323 1.963,0.609 0.275,0.136 0.554,0.271 0.787,0.344 0.522,-0.612 1.12,-1.225 1.942,-1.263 0.47,-0.021 0.935,-0.08 1.394,-0.137 0.253,-0.031 0.511,-0.063 0.771,-0.089 0.633,-1.36 1.191,-2.523 2.291,-2.559 0.002,0 0.004,0 0.005,0 0.858,0 1.542,0.349 2.145,0.656 0.379,0.193 0.809,0.412 1.053,0.412 1.1,0 1.816,1.023 2.449,1.927 0.137,0.195 0.325,0.462 0.496,0.675 0.347,-0.244 0.725,-0.437 1.139,-0.525 0.625,-0.611 1.272,-1.239 2.118,-1.239 l 0.189,0.011 c 0.638,0.076 1.156,0.34 1.604,0.634 0.392,-0.031 0.788,-0.075 1.202,-0.127 0.496,-0.063 0.99,-0.125 1.486,-0.156 0.178,-0.013 0.648,-0.461 0.9,-0.702 0.563,-0.538 1.202,-1.146 2.056,-1.22 l 0.13,-0.005 c 1.031,0 1.758,0.957 2.526,1.97 0.259,0.341 0.674,0.889 0.909,1.079 0.245,-0.083 0.617,-0.371 0.951,-0.629 0.517,-0.399 1.101,-0.851 1.81,-0.964 -0.215,-0.63 -0.186,-1.469 -0.155,-2.338 0.018,-0.491 0.045,-1.275 -0.026,-1.618 -0.19,-0.052 -0.536,-0.069 -0.781,-0.081 -0.687,-0.032 -1.542,-0.073 -2.202,-0.655 -0.464,-0.409 -0.795,-0.885 -1.114,-1.345 -0.251,-0.361 -0.488,-0.702 -0.761,-0.962 -0.359,-0.344 -0.699,-0.716 -1.037,-1.088 -0.323,-0.355 -0.646,-0.711 -0.992,-1.037 -0.133,-0.092 -0.696,-0.114 -1.032,-0.127 -0.74,-0.029 -1.58,-0.061 -2.201,-0.582 -0.725,-0.609 -0.753,-1.679 -0.779,-2.713 -0.008,-0.288 -0.019,-0.715 -0.059,-0.999 -0.304,0.102 -0.755,0.324 -1.054,0.472 -0.964,0.477 -1.917,0.886 -2.669,0.605 -0.541,-0.202 -0.974,-0.553 -1.354,-0.862 -0.263,-0.212 -0.532,-0.431 -0.748,-0.518 -0.112,0.165 -0.258,0.45 -0.362,0.654 -0.38,0.744 -0.81,1.586 -1.679,1.877 -0.138,0.046 -0.281,0.07 -0.427,0.07 -1.041,0 -1.642,-1.07 -2.337,-2.31 -0.289,-0.515 -0.685,-1.219 -0.926,-1.425 -0.565,-0.484 -0.704,-1.181 -0.826,-1.796 -0.058,-0.292 -0.117,-0.589 -0.214,-0.809 -0.362,0.06 -0.933,0.243 -1.407,0.396 -1.54,0.493 -2.922,0.79 -3.606,0.078 -0.282,-0.296 -0.522,-0.598 -0.762,-0.901 -0.295,-0.375 -0.574,-0.729 -0.94,-1.047 -0.537,-0.467 -0.755,-1.126 -0.93,-1.657 -0.105,-0.321 -0.237,-0.721 -0.374,-0.809 -0.259,-0.167 -0.604,-0.219 -1.043,-0.284 -0.43,-0.064 -0.917,-0.137 -1.424,-0.345 -0.893,-0.366 -1.138,-1.497 -1.423,-2.807 -0.077,-0.358 -0.19,-0.879 -0.306,-1.244 -0.201,0.178 -0.435,0.415 -0.601,0.583 -0.709,0.717 -1.441,1.459 -2.346,1.472 -0.155,0.002 -0.553,0.476 -0.744,0.704 -0.424,0.506 -0.905,1.079 -1.635,1.241 -0.894,0.199 -1.809,-0.385 -2.631,-0.954 -0.246,-0.171 -0.637,-0.441 -0.852,-0.535 -0.237,0.12 -0.488,0.238 -0.743,0.357 -0.643,0.3 -1.306,0.61 -1.735,0.978 -0.172,0.147 -0.325,0.606 -0.461,1.012 -0.204,0.612 -0.436,1.305 -0.952,1.828 -0.595,0.604 -1.456,0.677 -2.216,0.742 -0.334,0.028 -0.955,0.081 -1.084,0.203 -0.188,0.18 -0.348,0.503 -0.516,0.845 -0.255,0.517 -0.569,1.155 -1.159,1.641 -0.081,0.217 -0.119,0.813 -0.142,1.177 -0.07,1.098 -0.149,2.343 -1.099,2.892 -0.628,0.364 -1.364,0.411 -2.076,0.457 -0.479,0.031 -0.975,0.063 -1.291,0.196 -0.201,0.085 -0.42,0.128 -0.651,0.128 -0.663,0 -1.309,-0.358 -1.934,-0.705 -0.29,-0.162 -0.7,-0.389 -0.962,-0.472 -0.137,0.308 -0.298,0.891 -0.402,1.269 -0.366,1.322 -0.744,2.689 -1.888,2.926 l -0.302,0.031 c -0.968,0 -1.766,-0.893 -2.61,-1.837 -0.264,-0.295 -0.638,-0.714 -0.873,-0.911 -1.096,0.382 -2.082,0.899 -2.376,1.058 -1.181,0.64 -2.15,1.304 -2.469,1.69 -0.191,0.232 -0.039,1.299 0.026,1.755 0.063,0.436 0.121,0.848 0.107,1.207 -0.034,0.948 0.062,1.763 0.271,2.325 0.113,0.021 0.324,0.042 0.716,0.042 l 0.856,-0.008 c 0.771,0 1.637,0.052 2.137,0.677 0.189,0.238 0.303,0.491 0.372,0.747 z"
       id="path3789"
       inkscape:connector-curvature="0" /><path
       d="m 223.241,109.695 -0.102,0.002 c -0.561,0 -1.088,-0.115 -1.599,-0.226 -0.353,-0.077 -0.684,-0.137 -0.998,-0.164 -0.001,0.086 -0.005,0.165 -0.005,0.254 0,1.292 -0.003,3.62 -0.008,6.629 0.027,-0.003 0.052,-0.012 0.079,-0.013 l 0.104,-0.003 c 0.62,0 1.163,0.353 1.737,0.726 0.466,0.302 0.994,0.645 1.518,0.762 0.102,0.023 0.214,0.029 0.331,0.027 0.065,-2.908 0.181,-5.006 0.368,-5.858 0.067,-0.307 0.111,-0.613 0.136,-0.918 -0.231,-0.174 -0.454,-0.36 -0.661,-0.546 -0.268,-0.242 -0.718,-0.645 -0.9,-0.672 z"
       id="path3791"
       inkscape:connector-curvature="0" /><path
       d="m 210.724,116.622 c 0,1.472 -0.005,5.698 -0.013,11.157 0.703,0.16 1.376,0.657 1.956,1.11 0.18,0.141 0.404,0.309 0.598,0.438 0.001,-5.793 0.081,-10.155 0.298,-11.147 0.789,-3.59 -2.839,-7.276 -2.839,-1.558 z"
       id="path3793"
       inkscape:connector-curvature="0" /><path
       d="m 97.952,173.383 c 2.597,0 2.597,-0.206 5.194,-0.206 2.596,0 2.596,-0.003 5.192,-0.003 2.596,0 2.596,-2.346 5.192,-2.346 2.596,0 2.596,3.863 5.192,3.863 2.595,0 2.595,-3.646 5.19,-3.646 1.217,0 1.862,1.443 2.473,2.973 0,0.118 0,0.191 0,0.191 h 0.077 c 0.663,1.673 1.312,3.384 2.638,3.384 2.595,0 2.595,-1.669 5.19,-1.669 1.381,0 2.027,-0.763 2.721,-1.476 0,0.172 -0.001,0.277 -0.001,0.277 h 2.466 c 0,0 -0.014,-0.549 -0.037,-1.489 0.013,0 0.024,-0.002 0.037,-0.002 2.595,0 2.595,0.717 5.191,0.717 2.596,0 2.596,1.542 5.191,1.542 2.595,0 2.595,-3.472 5.191,-3.472 0.787,0 1.334,0.51 1.789,1.216 0.546,0.847 0.96,1.974 1.486,2.864 0.479,0.81 1.053,1.422 1.914,1.422 0.766,0 1.303,-0.594 1.75,-1.422 1.069,-1.978 1.611,-5.324 3.441,-5.324 1.524,0 2.154,1.434 2.939,2.619 0.552,0.833 1.179,1.544 2.25,1.544 2.595,0 2.595,-0.911 5.189,-0.911 2.594,0 2.594,0.364 5.188,0.364 2.595,0 2.595,1.946 5.19,1.946 2.212,0 2.542,-3.711 4.199,-4.806 -0.004,1.964 -0.006,3.194 -0.006,3.194 h 2.169 c 0,0 -0.035,-1.346 -0.083,-3.46 1.569,0.133 1.932,0.533 4.098,0.533 2.594,0 2.594,-0.746 5.188,-0.746 2.593,0 2.593,6.018 5.186,6.018 2.594,0 2.594,-5.098 5.189,-5.098 2.594,0 2.594,3.218 5.187,3.218 2.593,0 2.593,-4.635 5.185,-4.635 2.593,0 2.593,4.761 5.186,4.761 2.595,0 2.595,1.842 5.19,1.842 2.593,0 2.593,-0.04 5.186,-0.04 2.592,0 2.592,-6.44 5.184,-6.44 2.592,0 2.592,4.804 5.184,4.804 2.593,0 2.593,-0.292 5.187,-0.292 2.594,0 2.594,-3.556 5.188,-3.556 2.592,0 2.592,0.901 5.184,0.901 2.591,0 3.573,3.65 5.237,1.663 1.535,-1.832 -0.803,-2.318 -1.472,-4.612 -0.669,-2.294 1.115,-2.815 0.446,-5.109 -0.669,-2.293 -1.343,-2.36 -3.287,-3.747 -2.072,-1.478 -2.302,-0.795 -4.847,-0.795 -1.631,0 -2.218,-0.246 -3.099,-0.423 -0.053,-3.683 -0.054,-7.134 0.111,-7.775 0.376,-1.466 -1.352,-2.972 -1.352,-0.637 0,1.007 -0.007,4.552 -0.015,8.256 -0.221,-0.012 -0.461,-0.021 -0.735,-0.021 -2.543,0 -2.543,4.635 -5.087,4.635 -1.493,0 -2.11,-0.071 -2.879,-0.13 -0.142,-6.039 -0.295,-14.995 0.008,-16.178 0.462,-1.804 -1.664,-3.657 -1.664,-0.784 0,1.871 -0.02,10.851 -0.033,16.888 -0.16,-0.002 -0.328,-0.003 -0.513,-0.003 -2.543,0 -2.543,-0.378 -5.085,-0.378 -2.542,0 -2.542,-6.794 -5.084,-6.794 -0.74,0 -1.262,0.197 -1.696,0.474 -0.112,-5.86 -0.18,-12.205 -0.033,-15.146 -0.001,0 -0.004,-0.002 -0.005,-0.003 -0.167,0.027 -0.544,0.287 -0.876,0.517 -0.357,0.247 -0.751,0.505 -1.194,0.674 -0.007,3.998 -0.02,10.176 -0.032,15.545 -0.343,0.144 -0.744,0.236 -1.247,0.236 -2.448,0 -2.545,-0.555 -4.818,-0.596 -0.101,-4.271 -0.213,-9.424 -0.306,-14.735 -0.166,-0.007 -0.333,-0.002 -0.496,-0.023 -0.33,-0.018 -0.775,0.115 -1.166,0.231 -0.511,0.152 -1.039,0.31 -1.581,0.31 -0.261,0 -0.507,-0.038 -0.731,-0.112 -0.113,-0.037 -0.214,-0.095 -0.32,-0.145 -1.567,1.078 -3.845,2.408 -6.721,3.475 -0.02,-1.466 -0.039,-2.946 -0.056,-4.424 1.096,-0.582 2.235,-1.243 3.409,-1.999 -0.216,-0.446 -0.273,-0.914 -0.313,-1.279 -0.018,-0.166 -0.036,-0.294 -0.057,-0.406 -0.904,0.684 -1.924,1.378 -3.057,2.041 -0.009,-0.798 -0.016,-1.592 -0.024,-2.38 -0.359,-0.037 -0.697,-0.113 -0.97,-0.288 -0.585,-0.377 -1.125,-0.814 -1.648,-1.242 -0.003,1.742 -0.005,3.515 -0.008,5.291 -2.231,1.026 -4.8,1.875 -7.703,2.346 -0.128,-9.875 -0.262,-21.605 -0.345,-32.86 -0.172,0.06 -0.349,0.109 -0.541,0.12 l -0.122,0.003 c -0.737,0 -1.381,-0.359 -1.952,-0.683 -0.371,0.34 -0.8,0.584 -1.21,0.791 -0.017,14.906 -0.036,30.272 -0.05,41.247 -0.586,0.179 -1.174,0.378 -1.818,0.565 0.706,-0.239 -3.258,0.427 -4.041,1.141 -0.218,-0.298 -0.465,-0.659 -0.717,-1.037 -0.029,-4.606 0.009,-8.398 0.196,-9.248 0.543,-2.469 -1.952,-5.004 -1.952,-1.072 0,1.125 -0.005,4.133 -0.011,7.848 -2.598,-2.52 -5.522,-2.986 -8.72,-2.662 -0.135,-9.746 -0.165,-19.377 0.206,-21.063 0.789,-3.591 -2.839,-7.278 -2.839,-1.559 0,2.722 -0.018,13.005 -0.036,23.033 -0.282,0.055 -0.567,0.114 -0.853,0.175 -0.128,0.027 0.261,1.013 0.849,1.996 -0.003,1.752 -0.007,3.478 -0.01,5.137 -0.091,-0.007 -0.18,-0.017 -0.278,-0.017 -2.54,0 -2.54,4.929 -5.081,4.929 -2.54,0 -2.54,-3.781 -5.081,-3.781 -0.519,0 -0.928,0.1 -1.279,0.255 -0.075,0.033 -0.15,0.066 -0.22,0.104 0.074,-0.047 0.145,-0.098 0.217,-0.147 2.341,-1.613 3.783,-4.536 0.676,-6.471 -0.237,-0.148 -0.632,-0.256 -1.109,-0.342 -0.366,-0.066 -0.781,-0.118 -1.218,-0.164 -0.064,-0.916 -0.127,-1.845 -0.19,-2.783 0.147,-0.052 0.271,-0.101 0.349,-0.146 0.296,-0.169 0.574,-0.373 0.839,-0.595 2.258,-1.894 3.244,-5.512 0.742,-7.644 -0.35,-0.299 -0.763,-0.527 -1.191,-0.722 -0.329,-0.15 -0.667,-0.281 -0.997,-0.399 -0.109,-0.034 -0.22,-0.056 -0.329,-0.087 -0.018,-0.333 -0.036,-0.664 -0.054,-0.994 0.445,-0.219 0.87,-0.459 1.277,-0.704 0.251,-0.151 0.503,-0.302 0.729,-0.452 1.504,-0.997 0.562,-2.432 -0.878,-3.072 -0.424,-0.188 -0.888,-0.304 -1.349,-0.322 -0.172,-3.952 -0.269,-7.539 -0.244,-10.328 -0.231,0.053 -0.464,0.103 -0.709,0.133 -0.706,0.086 -1.43,-0.174 -2.031,-0.403 -0.378,-0.144 -0.77,-0.292 -1.034,-0.292 -0.087,0.009 -0.177,0.034 -0.27,0.069 -0.105,3.764 -0.266,8.116 -0.454,12.631 -0.476,0.203 -0.939,0.426 -1.357,0.682 -1.085,0.664 -1.862,1.557 -1.724,2.961 0.037,0.382 0.171,0.726 0.361,1.04 0.266,0.439 0.655,0.81 1.092,1.126 0.023,0.017 0.045,0.034 0.069,0.05 0.409,0.287 0.849,0.526 1.274,0.716 -0.065,1.448 -0.132,2.891 -0.199,4.315 -0.44,0.16 -0.882,0.33 -1.305,0.522 -1.805,0.821 -3.223,2.037 -2.242,4.482 0.367,0.916 1.107,1.63 1.953,2.19 0.39,0.258 0.8,0.483 1.212,0.677 -0.061,1.224 -0.121,2.407 -0.179,3.54 -0.124,-0.016 -0.251,-0.029 -0.389,-0.029 -0.315,0 -0.591,0.044 -0.837,0.121 -1.741,0.544 -2.017,2.736 -4.242,2.736 -1.664,0 -2.241,-1.465 -3.153,-2.478 -0.049,-4.506 -0.039,-8.559 0.135,-9.351 0.424,-1.931 -1.526,-3.912 -1.526,-0.839 0,1.184 -0.006,5.028 -0.014,9.306 -0.163,-0.035 -0.334,-0.059 -0.523,-0.059 -2.539,0 -2.539,5.229 -5.079,5.229 -2.127,0 -2.477,-2.407 -4.026,-3.19 -0.068,-4.452 -0.111,-9 -0.086,-12.428 0.007,-0.947 0.019,-1.803 0.038,-2.553 0.462,-0.405 0.984,-0.797 1.649,-0.872 0.647,-0.076 1.281,0.01 1.867,0.092 0.419,0.059 0.795,0.116 1.142,0.09 0.292,-0.021 0.706,-0.264 1.106,-0.499 0.583,-0.343 1.187,-0.697 1.892,-0.697 0.845,0.038 1.496,0.431 2.07,0.778 0.361,0.218 0.812,0.49 1.05,0.49 0.592,-0.077 1.146,-0.059 1.716,-0.039 0.629,0.023 1.22,0.021 1.548,-0.074 0.253,-0.074 0.59,-0.805 0.791,-1.241 0.088,-0.19 0.174,-0.377 0.265,-0.555 l -0.753,-0.341 0.509,-0.24 c -0.278,-0.294 -0.529,-0.598 -0.748,-0.862 l -0.411,-0.487 c -0.534,-0.622 -1.199,-1.396 -1.566,-2.314 -0.337,-0.843 0.101,-1.669 0.486,-2.397 0.144,-0.271 0.383,-0.724 0.388,-0.885 -0.033,-0.112 -0.383,-0.437 -0.614,-0.652 -0.487,-0.452 -1.038,-0.963 -1.175,-1.717 -0.061,-0.333 -0.318,-0.708 -0.567,-1.071 -0.302,-0.44 -0.614,-0.895 -0.714,-1.441 -0.033,-0.18 -0.05,-0.38 -0.063,-0.589 -0.047,-0.681 -0.09,-0.773 -0.426,-0.895 l -0.481,-0.18 c -0.663,-0.251 -1.414,-0.536 -2.189,-0.682 -0.363,-0.07 -0.77,-0.002 -1.182,0.048 -0.54,0.065 -1.127,0.133 -1.714,0.063 -0.638,-0.074 -1.201,-0.375 -1.699,-0.641 -0.403,-0.216 -0.785,-0.421 -1.083,-0.442 -0.406,-0.035 -0.839,0.033 -1.313,0.1 -0.442,0.062 -0.899,0.126 -1.375,0.126 l -0.217,-0.005 c -0.202,0 -0.628,0.274 -0.939,0.474 -0.556,0.358 -1.187,0.764 -1.928,0.764 -0.674,-0.013 -1.258,-0.156 -1.772,-0.282 -0.414,-0.102 -0.806,-0.197 -1.119,-0.197 -0.893,0 -1.634,-0.416 -2.229,-0.751 -0.223,-0.125 -0.56,-0.313 -0.68,-0.33 -0.247,0.008 -0.312,0.01 -0.479,0.908 -0.069,0.373 -0.142,0.758 -0.315,1.115 -0.305,0.626 -0.899,0.996 -1.476,1.353 -0.445,0.276 -0.95,0.59 -1.071,0.912 -0.346,0.918 -0.726,1.762 -1.867,2.781 -0.827,0.737 -1.754,1.161 -2.881,1.638 -0.968,0.41 -1.437,1.346 -1.768,2.208 -0.249,0.651 -0.053,1.601 0.5,2.419 0.098,0.146 0.536,0.277 0.914,0.378 -0.001,0.568 -0.002,1.269 -0.004,2.068 -0.01,5.394 -0.033,15.011 -0.033,15.011 h 1.502 c 0,0 -0.27,-8.942 -0.254,-14.136 0.003,-1.04 0.018,-1.925 0.049,-2.562 0.31,0.124 0.61,0.282 0.868,0.506 0.948,0.822 1.086,1.694 1.177,2.271 0.075,0.478 0.096,0.606 0.434,0.819 0.655,0.42 1.619,0.673 2.551,0.896 0.23,0.055 0.468,0.118 0.711,0.183 0.679,0.18 1.38,0.366 2.051,0.404 l 0.145,0.008 c 0.873,0.05 1.82,0.106 2.745,0.068 0.28,-0.012 0.661,-0.2 1.064,-0.399 0.516,-0.255 1.102,-0.545 1.768,-0.607 0.748,-0.074 1.464,0.28 2.069,0.588 0.014,0.007 0.03,0.015 0.045,0.023 -0.001,0.68 -0.002,1.41 -0.003,2.181 -0.006,3.557 -0.014,7.963 -0.022,12.237 -1.545,0.576 -1.897,2.335 -4.023,2.335 -2.539,0 -2.539,-3.923 -5.079,-3.923 -0.051,0 -0.096,0.014 -0.145,0.018 -0.011,-3.14 0.026,-5.629 0.159,-6.231 0.424,-1.931 -1.526,-3.912 -1.526,-0.839 0,1.045 -0.005,4.165 -0.012,7.826 -1.178,1.363 -1.659,4.049 -3.553,4.049 -2.539,0 -2.539,-5.437 -5.078,-5.437 -2.541,0 -2.541,0.855 -5.081,0.855 -2.539,0 -2.539,1.094 -5.077,1.094 -2.538,0 -2.538,-1.959 -5.076,-1.959 -2.538,0 -2.538,5.341 -5.076,5.341 -1.49,0 -2.107,0.344 -2.875,0.628 v 9.339 c 1.006,0.587 1.566,1.52 3.345,1.52 z m 106.197,-14.499 c -0.374,0 -0.689,0.058 -0.969,0.148 -0.009,-0.593 -0.018,-1.211 -0.027,-1.846 0.124,-0.02 0.248,-0.044 0.372,-0.06 0.324,-0.041 0.078,-0.833 -0.397,-1.704 -0.02,-1.44 -0.042,-2.965 -0.064,-4.566 1.879,-0.099 4.488,-0.407 7.613,-1.215 -0.004,2.665 -0.008,5.231 -0.012,7.586 -0.384,-0.107 -0.839,-0.178 -1.439,-0.178 -2.538,-0.001 -2.538,1.835 -5.077,1.835 z m 16.324,-12.999 c -0.013,6.343 -0.026,12.238 -0.035,16.496 -0.3,0.193 -0.639,0.317 -1.05,0.317 -2.539,0 -2.539,-4.396 -5.079,-4.396 -0.27,0 -0.506,-0.017 -0.725,-0.042 -0.05,-2.868 -0.102,-6.09 -0.15,-9.43 2.178,-0.713 4.544,-1.672 7.039,-2.945 z m -9.787,-1.707 c -0.002,1.337 -0.004,2.669 -0.006,3.984 -2.275,0.607 -4.833,1.002 -7.639,1.008 -0.011,-0.804 -0.022,-1.626 -0.033,-2.461 1.725,-0.348 4.417,-1.069 7.678,-2.531 z m -17.682,13.015 c 1.815,1.773 3.747,1.672 5.755,1.164 -10e-4,1.054 -0.003,2.041 -0.004,2.961 -2.229,-0.06 -2.34,-0.75 -4.771,-0.75 -0.762,0 -1.293,-0.306 -1.735,-0.731 -0.017,-1.224 -0.032,-2.445 -0.044,-3.638 0.243,0.358 0.499,0.701 0.799,0.994 z m -11.234,-3.657 c 2.479,-0.537 6.199,-1.326 8.412,0.158 0.084,0.057 0.158,0.125 0.237,0.189 -0.002,1.241 -0.005,2.531 -0.007,3.834 -0.397,-0.317 -0.874,-0.528 -1.51,-0.528 -2.54,0 -2.54,2.008 -5.081,2.008 -0.896,0 -1.474,-0.299 -1.961,-0.684 -0.031,-1.594 -0.062,-3.269 -0.09,-4.977 z m -14.881,4.898 c -0.247,0.158 -0.467,0.341 -0.678,0.532 -0.004,-0.056 -0.009,-0.113 -0.013,-0.169 0.235,-0.109 0.466,-0.228 0.691,-0.363 z"
       id="path3795"
       inkscape:connector-curvature="0" /><path
       d="m 229.395,107.755 c 0.426,0 0.865,-0.094 1.33,-0.193 0.47,-0.101 0.956,-0.205 1.464,-0.216 0.606,-0.013 1.187,-0.096 1.747,-0.176 0.358,-0.051 0.706,-0.1 1.047,-0.132 0.15,-0.014 0.54,-0.524 0.707,-0.742 0.411,-0.538 0.877,-1.146 1.619,-1.311 1.013,-0.222 2.039,0.643 2.971,1.489 0.221,0.201 0.521,0.473 0.745,0.645 0.185,-0.28 0.339,-0.758 0.46,-1.134 0.148,-0.461 0.289,-0.897 0.522,-1.264 0.151,-0.237 0.337,-0.48 0.53,-0.73 0.386,-0.501 0.786,-1.02 0.799,-1.464 0.019,-0.607 0.325,-1.185 0.649,-1.796 0.193,-0.365 0.504,-0.952 0.523,-1.241 -0.17,-0.146 -0.604,-0.373 -0.877,-0.515 -0.817,-0.427 -1.744,-0.911 -2.034,-1.803 -0.065,-0.062 -0.515,-0.289 -0.783,-0.424 -0.733,-0.371 -1.564,-0.792 -1.882,-1.646 -0.376,-1.013 0.447,-2.055 1.319,-3.158 0.233,-0.294 0.554,-0.699 0.734,-0.982 -0.242,-0.145 -0.624,-0.295 -0.883,-0.397 -0.596,-0.235 -1.211,-0.478 -1.623,-0.941 -0.303,-0.342 -0.561,-0.71 -0.811,-1.067 -0.313,-0.448 -0.609,-0.871 -0.905,-1.105 -0.282,-0.223 -0.559,-0.453 -0.832,-0.68 -0.472,-0.392 -0.918,-0.762 -1.349,-1.063 -0.005,-0.002 -0.104,-0.051 -0.464,-0.051 -0.171,0 -0.347,0.01 -0.521,0.019 -0.207,0.01 -0.411,0.021 -0.606,0.021 -0.496,0 -1.214,-0.06 -1.727,-0.575 -0.845,-0.849 -0.269,-1.995 0.152,-2.831 0.093,-0.185 0.223,-0.444 0.313,-0.662 -0.298,-0.012 -0.765,0.01 -1.197,0.034 -0.394,0.021 -0.795,0.042 -1.168,0.042 -0.614,0 -1.072,-0.058 -1.442,-0.183 -0.498,-0.168 -0.91,-0.483 -1.309,-0.788 -0.408,-0.312 -0.795,-0.607 -1.193,-0.686 -0.183,0.1 -0.543,0.452 -0.765,0.669 -0.658,0.644 -1.403,1.373 -2.375,1.373 -1.039,-0.035 -1.673,-0.941 -2.286,-1.816 -0.247,-0.354 -0.654,-0.934 -0.872,-1.075 -0.71,-0.022 -1.341,-0.344 -1.9,-0.629 -0.35,-0.178 -0.709,-0.361 -0.989,-0.42 -0.221,0.294 -0.552,1.004 -0.76,1.453 -0.631,1.358 -1.228,2.64 -2.367,2.694 -0.535,0.025 -1.076,-0.002 -1.62,-0.033 -0.493,-0.027 -0.989,-0.057 -1.492,-0.03 l -0.129,0.003 c -0.727,0 -1.379,-0.322 -1.954,-0.606 -0.399,-0.198 -0.813,-0.402 -1.076,-0.402 -0.404,0.021 -0.839,0.168 -1.299,0.325 -0.546,0.185 -1.163,0.395 -1.822,0.427 -0.001,0 -0.002,0 -0.003,0 -1.145,0 -1.825,-1.09 -2.546,-2.245 -0.228,-0.366 -0.583,-0.935 -0.822,-1.2 -0.159,0.177 -0.481,0.595 -0.688,0.863 -0.63,0.817 -1.28,1.662 -2.268,1.676 -0.227,0.003 -0.634,0.425 -0.93,0.733 -0.462,0.479 -0.986,1.023 -1.713,1.121 -1.032,0.133 -1.978,-0.606 -2.765,-1.259 -0.198,-0.164 -0.476,-0.394 -0.655,-0.51 -0.628,0.28 -1.836,0.852 -2.307,1.413 -0.113,0.135 -0.18,0.61 -0.228,0.957 -0.092,0.656 -0.206,1.472 -0.719,2.129 -0.55,0.704 -1.441,0.754 -2.157,0.794 -0.44,0.025 -0.939,0.053 -1.148,0.219 -0.149,0.119 -0.297,0.349 -0.467,0.615 -0.187,0.292 -0.409,0.621 -0.703,0.932 -0.193,0.559 -0.559,1.158 -0.96,1.805 -0.096,0.155 -0.212,0.345 -0.328,0.539 -0.088,0.312 -0.191,0.619 -0.324,0.901 0.248,0.057 0.584,0.11 0.824,0.147 0.802,0.125 1.706,0.266 2.299,0.839 0.036,0.007 0.104,0.016 0.22,0.016 0.268,0 0.569,-0.04 0.872,-0.078 0.374,-0.046 0.761,-0.094 1.138,-0.094 0.653,0 1.153,0.154 1.527,0.471 0.635,0.536 0.814,1.338 0.974,2.045 0.068,0.303 0.195,0.867 0.318,0.963 0.528,0.364 0.91,0.861 1.247,1.3 0.298,0.388 0.579,0.754 0.875,0.918 0.079,0.044 0.628,0.047 1.115,-0.017 0.72,-0.096 1.521,-0.137 2.102,0.108 0.969,0.409 1.222,1.652 1.489,2.969 0.086,0.42 0.219,1.074 0.348,1.402 0.296,-0.068 0.74,-0.293 1.079,-0.464 0.72,-0.362 1.492,-0.733 2.22,-0.652 1.188,0.135 2.309,0.263 2.92,1.575 0.307,0.657 0.878,1.881 0.246,3.479 -0.015,0.117 0.086,0.609 0.152,0.935 0.075,0.366 0.154,0.768 0.187,1.173 0.244,-0.119 0.499,-0.213 0.786,-0.23 0.294,-0.018 0.682,-0.221 1.092,-0.437 0.548,-0.289 1.169,-0.616 1.886,-0.659 0.001,0 0.002,0 0.004,0 1.138,0 1.819,1.072 2.541,2.207 0.25,0.393 0.65,1.022 0.887,1.249 0.313,-0.045 0.683,-0.173 1.071,-0.307 0.524,-0.181 1.118,-0.386 1.755,-0.423 0.134,-0.058 0.534,-0.529 0.773,-0.811 0.572,-0.674 1.222,-1.439 2.147,-1.487 0.481,-0.025 0.956,-0.088 1.428,-0.149 0.524,-0.068 1.067,-0.138 1.615,-0.162 l 0.181,-0.004 c 0.594,0 1.163,0.124 1.665,0.233 0.426,0.092 0.827,0.18 1.173,0.18 l 0.11,-0.001 c 0.907,0 1.608,0.627 2.227,1.181 0.247,0.221 0.659,0.59 0.825,0.629 0.147,-0.017 0.626,-0.434 0.883,-0.659 0.587,-0.512 1.252,-1.093 2.099,-1.093 l 0.112,0.994 h 10e-4 v -0.996 z"
       id="path3797"
       inkscape:connector-curvature="0" /><polygon
       points="145.239,122.199 145.235,122.199 145.239,123.196 "
       id="polygon3799" /><path
       d="m 160.286,120.398 c 0.715,-0.083 1.433,0.178 2.033,0.407 0.376,0.143 0.764,0.29 1.023,0.29 0.485,-0.053 0.924,-0.182 1.389,-0.317 0.518,-0.151 1.053,-0.308 1.63,-0.375 0.521,-0.062 1.029,-0.066 1.506,-0.066 h 0.319 c 0.367,0 0.754,-0.003 1.117,-0.038 0.187,-0.146 0.519,-0.677 0.722,-1.002 0.549,-0.879 1.115,-1.788 2.094,-1.881 0.605,-0.056 1.213,-0.004 1.814,0.055 0.43,0.042 0.858,0.087 1.263,0.06 0.651,-0.044 1.285,0.051 1.877,0.144 0.409,0.064 0.795,0.124 1.138,0.124 l 0.119,-0.001 c 0.866,0 1.572,0.511 2.14,0.922 0.25,0.181 0.668,0.483 0.822,0.49 0.113,-0.047 0.525,-0.462 0.771,-0.709 0.552,-0.557 1.179,-1.188 1.987,-1.285 0.223,-0.026 0.537,-0.285 0.842,-0.534 0.428,-0.352 0.913,-0.75 1.563,-0.924 0.117,-0.031 0.24,-0.047 0.364,-0.047 0.875,0 1.673,0.777 2.596,1.677 0.341,0.332 0.879,0.856 1.185,1.056 0.3,-0.174 0.638,-0.464 0.966,-0.747 0.399,-0.343 0.812,-0.698 1.268,-0.953 0.113,-0.189 0.221,-0.766 0.287,-1.118 0.171,-0.913 0.348,-1.857 1.082,-2.35 0.467,-0.313 0.876,-0.686 1.309,-1.082 0.266,-0.242 0.53,-0.483 0.807,-0.711 0.45,-0.371 0.949,-0.618 1.39,-0.836 0.409,-0.203 0.796,-0.394 1.024,-0.629 0.612,-0.628 1.573,-0.731 2.421,-0.823 0.303,-0.032 0.79,-0.084 0.994,-0.16 0.058,-0.249 -0.081,-0.93 -0.158,-1.308 -0.152,-0.747 -0.296,-1.453 -0.052,-2.07 0.292,-0.738 0.092,-1.274 -0.199,-1.898 -0.106,-0.229 -0.139,-0.297 -1.333,-0.433 -0.201,0 -0.737,0.271 -1.093,0.451 -0.857,0.433 -1.825,0.863 -2.675,0.624 -1.075,-0.303 -1.337,-1.588 -1.613,-2.949 -0.098,-0.482 -0.256,-1.259 -0.407,-1.551 -0.188,-0.031 -0.608,0.011 -0.961,0.058 -0.813,0.107 -1.72,0.131 -2.345,-0.215 -0.662,-0.365 -1.104,-0.941 -1.495,-1.451 -0.271,-0.353 -0.526,-0.686 -0.795,-0.87 -0.764,-0.526 -0.97,-1.438 -1.135,-2.172 -0.064,-0.289 -0.184,-0.817 -0.302,-0.945 0.001,0.007 -0.079,-0.009 -0.248,-0.01 -0.277,0 -0.585,0.041 -0.892,0.079 -0.369,0.045 -0.751,0.093 -1.118,0.093 -0.263,0 -1.062,0 -1.612,-0.58 -0.149,-0.133 -0.816,-0.237 -1.214,-0.299 -0.888,-0.138 -1.893,-0.295 -2.438,-1.048 -0.72,-0.998 0.054,-2.246 0.873,-3.568 0.253,-0.409 0.657,-1.061 0.773,-1.389 -0.146,-0.166 -0.416,-0.338 -0.679,-0.505 -0.602,-0.384 -1.351,-0.862 -1.523,-1.804 -0.177,-0.959 -0.621,-2.149 -1.218,-2.643 -0.428,-0.355 -1.538,-1.23 -2.619,-1.701 -0.198,0.011 -0.609,0.159 -0.973,0.289 -0.754,0.271 -1.693,0.557 -2.457,0.339 -0.902,-0.257 -1.343,-1.24 -1.769,-2.19 -0.151,-0.339 -0.387,-0.864 -0.57,-1.122 -0.252,0.18 -0.636,0.562 -0.886,0.81 -0.757,0.75 -1.539,1.524 -2.467,1.524 l -0.237,-0.017 c -0.706,-0.105 -1.296,-0.494 -1.817,-0.837 -0.389,-0.256 -0.79,-0.521 -1.092,-0.554 -0.099,0.052 -0.561,0.503 -0.836,0.772 -0.682,0.665 -1.387,1.354 -2.299,1.354 l -0.138,-0.006 c -1.035,-0.083 -1.636,-1.117 -2.218,-2.116 -0.212,-0.365 -0.558,-0.959 -0.759,-1.139 -0.729,-0.078 -1.351,-0.475 -1.902,-0.828 -0.293,-0.187 -0.616,-0.394 -0.859,-0.479 -0.256,0.31 -0.65,1.074 -0.898,1.557 -0.726,1.407 -1.353,2.623 -2.462,2.623 -0.601,-0.011 -1.14,-0.079 -1.661,-0.145 -0.499,-0.063 -0.971,-0.123 -1.42,-0.124 -0.829,-0.002 -1.519,-0.417 -2.127,-0.784 -0.334,-0.201 -0.749,-0.452 -0.948,-0.452 -0.438,0.006 -0.9,0.158 -1.39,0.319 -0.532,0.176 -1.082,0.357 -1.675,0.374 -0.001,0 -0.001,0 -0.002,0 -1.16,0 -2.121,-1.103 -3.05,-2.168 -0.212,-0.243 -0.489,-0.562 -0.72,-0.797 -0.093,0.408 -0.177,1.09 -0.228,1.509 -0.102,0.833 -0.19,1.556 -0.493,2.071 0.021,0.162 0.169,0.509 0.27,0.746 0.281,0.664 0.632,1.489 0.394,2.352 -0.26,0.939 -1.277,1.338 -2.261,1.725 -0.425,0.167 -1.136,0.446 -1.278,0.63 -0.179,0.638 -0.528,1.208 -0.866,1.758 -0.186,0.303 -0.38,0.616 -0.554,0.97 -0.094,0.189 -0.104,0.573 -0.115,0.944 -0.021,0.727 -0.049,1.632 -0.662,2.386 -0.594,0.731 -1.556,0.768 -2.329,0.798 -0.41,0.016 -0.971,0.037 -1.147,0.18 -0.188,0.152 -0.356,0.427 -0.55,0.745 -0.319,0.522 -0.712,1.167 -1.439,1.613 -0.11,0.214 -0.225,0.825 -0.295,1.199 -0.213,1.133 -0.454,2.418 -1.5,2.861 -0.754,0.32 -1.374,0.271 -1.903,0.252 -0.115,-0.004 -0.229,-0.008 -0.338,-0.008 -0.278,0 -0.367,0.032 -0.396,0.051 -0.395,0.264 -0.889,0.387 -1.554,0.387 -0.37,0 -0.773,-0.04 -1.166,-0.081 -0.095,-0.01 -0.189,-0.02 -0.282,-0.029 0.19,0.202 0.399,0.41 0.56,0.57 0.861,0.856 1.605,1.595 1.535,2.476 -0.074,0.923 -0.991,1.525 -2.054,2.222 -0.351,0.23 -0.896,0.587 -1.154,0.828 0.287,0.659 0.792,1.551 1.345,2.369 0.167,0.248 0.339,0.522 0.517,0.806 0.377,0.602 0.767,1.225 1.171,1.676 0.119,0.132 0.697,0.255 1.043,0.328 0.669,0.142 1.426,0.302 1.97,0.809 0.36,0.337 0.68,0.696 0.988,1.042 0.322,0.361 0.627,0.705 0.936,0.971 0.35,-0.017 0.915,-0.22 1.374,-0.384 1.079,-0.388 2.102,-0.643 2.75,-0.171 1.274,0.928 0.932,2.407 0.705,3.385 -0.061,0.26 -0.155,0.667 -0.156,0.879 0.254,-0.023 0.594,-0.115 0.924,-0.205 0.49,-0.133 0.998,-0.271 1.512,-0.271 0.309,0 0.594,0.053 0.847,0.156 0.849,0.346 1.629,0.57 2.612,0.821 0.893,0.228 1.744,0.396 2.761,0.548 0.524,0.078 1.06,0.09 1.627,0.102 0.401,0.009 0.81,0.018 1.232,0.048 0.981,0.071 1.59,1.02 2.178,1.937 0.214,0.334 0.559,0.872 0.765,1.054 0.239,-0.051 0.613,-0.27 0.922,-0.449 0.581,-0.339 1.24,-0.724 2,-0.745 0.164,-0.017 0.595,-0.381 0.852,-0.599 0.57,-0.483 1.218,-1.031 2.054,-1.082 0.468,-0.028 0.942,-0.113 1.445,-0.202 0.48,-0.086 0.978,-0.175 1.501,-0.219 l 0.125,-0.005 c 0.976,0 1.662,0.878 2.389,1.809 0.257,0.329 0.671,0.857 0.901,1.03 0.22,-0.064 0.56,-0.285 0.889,-0.499 0.533,-0.351 1.142,-0.747 1.874,-0.83 z"
       id="path3801"
       inkscape:connector-curvature="0" /><path
       d="m 247.966,139.927 c 0.254,0 0.662,-0.252 1.022,-0.474 0.526,-0.325 1.123,-0.693 1.83,-0.727 10e-4,0 0.002,0 0.004,0 1.023,0 1.785,0.752 2.458,1.416 0.232,0.229 0.604,0.597 0.806,0.717 0.373,-0.109 0.794,-0.434 1.202,-0.749 0.419,-0.322 0.852,-0.656 1.337,-0.843 l 0.292,-0.112 c 0.871,-0.333 1.858,-0.712 2.237,-1.104 0.555,-0.574 0.903,-1.817 0.678,-2.417 -0.107,-0.286 -0.475,-0.598 -0.831,-0.899 -0.463,-0.392 -0.987,-0.837 -1.239,-1.469 -0.348,-0.874 -0.034,-1.808 0.218,-2.558 0.099,-0.293 0.247,-0.736 0.232,-0.884 -0.065,-0.135 -0.735,-0.41 -1.096,-0.557 -0.718,-0.294 -1.46,-0.599 -1.793,-1.297 -0.343,-0.719 -0.457,-1.423 -0.548,-1.988 -0.06,-0.365 -0.115,-0.71 -0.209,-0.883 -0.164,-0.302 -0.658,-0.533 -1.136,-0.757 -0.636,-0.297 -1.355,-0.633 -1.662,-1.356 -0.337,-0.795 0.063,-1.563 0.45,-2.306 0.247,-0.473 0.555,-1.062 0.498,-1.405 -0.212,-1.275 -0.63,-2.283 -1.133,-2.746 -0.246,0.044 -0.702,0.23 -1.046,0.371 -1.01,0.412 -2.146,0.797 -2.997,0.449 -0.241,-0.098 -0.475,-0.199 -0.707,-0.3 -0.652,-0.282 -1.268,-0.548 -2.03,-0.744 -0.604,-0.155 -1.124,-0.479 -1.581,-0.767 -0.441,-0.276 -0.857,-0.537 -1.261,-0.597 -0.502,-0.076 -1.005,-0.024 -1.52,0.019 -0.526,0.043 -1.066,0.084 -1.607,0.052 -0.703,-0.042 -1.398,-0.423 -2.071,-0.793 -0.236,-0.13 -0.588,-0.323 -0.839,-0.427 -0.019,0.2 -0.043,0.519 -0.059,0.736 -0.061,0.808 -0.129,1.725 -0.713,2.359 -0.127,0.138 -0.284,0.549 -0.41,0.879 -0.282,0.736 -0.633,1.652 -1.438,2.139 -0.675,0.407 -1.655,0.172 -2.527,-0.137 -0.408,-0.144 -0.87,-0.308 -1.158,-0.308 -0.82,0.127 -1.447,0.064 -2.206,-0.018 -0.264,-0.029 -0.543,-0.059 -0.845,-0.082 -0.285,0.002 -0.556,0.062 -0.858,0.131 -0.63,0.142 -1.453,0.285 -2.179,0.124 -0.876,-0.196 -1.594,-0.662 -2.171,-1.037 -0.245,-0.159 -0.581,-0.377 -0.705,-0.408 0.009,0.009 -0.221,0.024 -0.487,0.333 -0.412,0.477 -0.616,1.287 -0.575,1.795 0.045,0.07 0.399,0.424 0.634,0.658 0.642,0.641 1.439,1.438 1.406,2.47 -0.038,1.21 -0.988,2.557 -1.875,3.723 -0.557,0.733 -1.466,0.757 -2.268,0.778 -0.459,0.012 -0.932,0.024 -1.26,0.157 -0.108,0.161 -0.269,0.586 -0.378,0.875 -0.367,0.973 -0.824,2.185 -1.971,2.482 -0.124,0.033 -0.255,0.049 -0.388,0.049 -0.745,0 -1.383,-0.497 -2.059,-1.024 -0.326,-0.254 -0.933,-0.728 -1.16,-0.741 -1.367,0.202 -2.549,0.885 -2.747,1.131 -0.215,0.356 -0.025,1.974 0.633,2.724 0.156,0.178 0.677,0.38 1.095,0.542 0.564,0.218 1.203,0.466 1.741,0.876 0.294,0.223 0.587,0.463 0.884,0.706 0.504,0.413 1.025,0.839 1.545,1.173 0,0 0.058,0.033 0.248,0.033 0.274,0 0.636,-0.068 0.985,-0.133 0.413,-0.078 0.84,-0.157 1.251,-0.157 0.423,0 0.774,0.084 1.076,0.257 1.263,0.727 1.383,1.837 1.454,2.5 0.063,0.584 0.101,0.649 0.282,0.757 0.424,0.298 0.749,0.616 1.064,0.924 0.438,0.43 0.893,0.874 1.296,1.007 0.007,0.002 0.037,0.011 0.102,0.011 0.25,0 0.637,-0.115 1.01,-0.226 0.607,-0.181 1.328,-0.381 1.997,-0.298 0.498,0.066 1.013,0.019 1.538,-0.022 0.402,-0.031 0.811,-0.062 1.223,-0.062 l 0.236,0.001 c 0.554,0 1.119,-0.048 1.718,-0.099 0.348,-0.029 0.698,-0.059 1.054,-0.08 0.219,-0.013 0.596,-0.273 0.928,-0.502 0.53,-0.366 1.131,-0.781 1.879,-0.858 l 0.175,-0.009 c 0.855,0 1.537,0.608 2.197,1.196 0.271,0.242 0.725,0.646 0.907,0.693 0.223,-0.04 0.599,-0.257 0.996,-0.487 0.516,-0.298 1.1,-0.635 1.78,-0.725 0.621,-0.081 1.247,-0.016 1.821,0.048 0.415,0.047 0.83,0.102 1.219,0.057 0.774,-0.086 1.496,0.194 2.104,0.44 0.35,0.141 0.71,0.288 0.938,0.288 0.252,-0.015 0.656,-0.332 0.981,-0.586 0.551,-0.432 1.176,-0.922 1.964,-0.922 l 0.114,0.995 c 0,0 0.001,0 0.001,0 z"
       id="path3803"
       inkscape:connector-curvature="0" /><path
       d="m 85.781,44.743 c 12.85,0.786 16.874,3.082 17.89,3.864 -0.399,1.252 -2.466,5.685 -12.819,13.744 -2.023,1.575 -4.049,3.041 -5.933,4.347 v 2.744 c 0,5.232 -3.676,9.614 -8.579,10.721 2.792,1.998 4.622,5.259 4.622,8.945 v 76.166 c 0,6.065 -4.937,11.002 -11.001,11.002 h -6.708 v 69.211 c 0,6.83 5.537,12.363 12.363,12.363 6.828,0 12.365,-5.533 12.365,-12.363 V 83.868 c 3.498,-2.218 8.812,-5.765 14.034,-9.944 13.926,-11.146 19.568,-20.805 17.251,-29.529 -3.448,-12.984 -21.597,-15.5 -38.206,-15.867 3,4.113 4.776,9.172 4.776,14.64 0,0.529 -0.022,1.054 -0.055,1.575 z"
       id="path3805"
       inkscape:connector-curvature="0" /><path
       d="m 33.889,245.487 c 0,6.83 5.537,12.363 12.363,12.363 6.828,0 12.365,-5.533 12.365,-12.363 V 176.276 H 33.889 Z"
       id="path3807"
       inkscape:connector-curvature="0" /><path
       d="m 81.597,52.08 c 1.181,-2.734 1.838,-5.746 1.838,-8.913 0,-12.426 -10.072,-22.5 -22.5,-22.5 -12.426,0 -22.5,10.074 -22.5,22.5 0,1.997 0.263,3.932 0.752,5.775 h 34.731 c 2.986,0 5.694,1.2 7.679,3.138 z"
       id="path3809"
       inkscape:connector-curvature="0" /><path
       d="m 69.959,81.108 h -6.885 v 25.871 H 57.407 V 81.108 H 23.241 v 25.871 H 17.574 V 81.108 h -5.615 c -4.418,0 -8,3.581 -8,8 v 76.166 c 0,4.419 3.582,8 8,8 h 58 c 4.418,0 8,-3.581 8,-8 V 89.108 c 0,-4.419 -3.582,-8 -8,-8 z"
       id="path3811"
       inkscape:connector-curvature="0" /><path
       d="m 8,77.44 h 65.917 c 4.418,0 8,-3.581 8,-8 v -9.499 c 0,-4.419 -3.582,-8 -8,-8 H 8 c -4.418,0 -8,3.581 -8,8 v 9.499 c 0,4.419 3.582,8 8,8 z M 73.063,55.608 c 3.177,0 5.751,4.104 5.751,9.166 0,5.062 -2.574,9.167 -5.751,9.167 -3.176,0 -5.75,-4.104 -5.75,-9.167 0,-5.063 2.574,-9.166 5.75,-9.166 z"
       id="path3813"
       inkscape:connector-curvature="0" /><path
       d="m 166.601,40 c 11.045,0 20,-8.953 20,-20 0,-11.045 -8.955,-20 -20,-20 -11.046,0 -20,8.955 -20,20 0,11.047 8.954,20 20,20 z m 0,-36.19 c 8.925,0 16.187,7.264 16.187,16.193 0,8.926 -7.263,16.184 -16.187,16.184 -8.929,0 -16.188,-7.258 -16.188,-16.184 0,-8.929 7.26,-16.193 16.188,-16.193 z"
       id="path3815"
       inkscape:connector-curvature="0" /></g><rect
     style="fill:none;stroke-width:0.36735216"
     id="rect3857"
     width="99.332367"
     height="95.962173"
     x="0.13656449"
     y="2.1233065" /></svg>