<?xml version="1.0" encoding="UTF-8" standalone="no"?>
<svg
   xmlns:dc="http://purl.org/dc/elements/1.1/"
   xmlns:cc="http://creativecommons.org/ns#"
   xmlns:rdf="http://www.w3.org/1999/02/22-rdf-syntax-ns#"
   xmlns:svg="http://www.w3.org/2000/svg"
   xmlns="http://www.w3.org/2000/svg"
   xmlns:sodipodi="http://sodipodi.sourceforge.net/DTD/sodipodi-0.dtd"
   xmlns:inkscape="http://www.inkscape.org/namespaces/inkscape"
   version="1.1"
   x="0px"
   y="0px"
   viewBox="0 0 100 100"
   enable-background="new 0 0 100 100"
   xml:space="preserve"
   id="svg221"
   sodipodi:docname="flock.svg"
   width="100"
   height="100"
   inkscape:version="0.92.4 (unknown)"><metadata
     id="metadata227"><rdf:RDF><cc:Work
         rdf:about=""><dc:format>image/svg+xml</dc:format><dc:type
           rdf:resource="http://purl.org/dc/dcmitype/StillImage" /><dc:title></dc:title></cc:Work></rdf:RDF></metadata><defs
     id="defs225" /><sodipodi:namedview
     pagecolor="#ffffff"
     bordercolor="#666666"
     borderopacity="1"
     objecttolerance="10"
     gridtolerance="10"
     guidetolerance="10"
     inkscape:pageopacity="0"
     inkscape:pageshadow="2"
     inkscape:window-width="1920"
     inkscape:window-height="1017"
     id="namedview223"
     showgrid="false"
     inkscape:zoom="4.6895322"
     inkscape:cx="26.635159"
     inkscape:cy="46.448911"
     inkscape:window-x="0"
     inkscape:window-y="26"
     inkscape:window-maximized="1"
     inkscape:current-layer="svg221" /><path
     d="m 47.254,4.646 c 0.655,1.1 1.717,1.812 2.648,2.622 -1.059,-0.356 -2.059,-0.846 -3.083,-1.274 -0.087,0.059 -0.238,0.176 -0.325,0.235 1.074,1.079 1.745,2.503 2.964,3.433 -0.126,0.213 -0.24,0.416 -0.377,0.618 1.505,1.069 2.633,2.538 3.742,3.984 1.286,1.645 3.108,2.823 4.221,4.626 1.015,1.85 2.539,3.338 3.556,5.167 0.52,0.881 1.012,1.551 1.785,1.93 0.59,1.159 1.484,2.14 1.604,3.505 -2.45,1.12 -5.098,1.505 -7.703,2.169 -1.803,0.494 -3.775,0.427 -5.489,1.239 0.798,0.552 1.773,0.486 2.677,0.207 0.724,0.78 1.829,0.835 2.804,0.592 -0.01,0.188 -0.02,0.376 -0.039,0.573 0.634,0.063 1.27,0.105 1.905,0.147 0.054,0.171 0.108,0.341 0.173,0.521 0.929,0.235 1.783,0.696 2.714,0.932 0.732,0.173 0.976,0.969 1.464,1.443 1.012,0.877 1.639,2.122 2.003,3.405 0.067,0.317 0.407,0.429 0.66,0.577 0.179,0.615 0.346,1.241 0.63,1.819 0.163,-0.326 0.327,-0.674 0.419,-1.034 0.67,-3.135 1.061,-6.314 1.762,-9.438 0.012,-0.448 0.674,-0.51 0.932,-0.225 1.145,1.136 2.875,1.243 4.181,2.114 0.484,0.339 0.959,0.686 1.477,0.974 4.794,1.998 8.914,5.28 13.777,7.136 0.781,0.269 1.317,1.038 2.159,1.154 0.862,0.116 1.487,0.765 2.197,1.198 0.022,-0.24 0.056,-0.467 0.077,-0.707 0.609,0.563 1.174,1.21 1.94,1.551 -0.158,-0.594 -0.422,-1.172 -0.719,-1.72 0.485,0.338 0.971,0.677 1.477,0.995 -0.374,-1.493 -1.423,-2.676 -2.216,-3.949 0.517,0.329 1.044,0.648 1.583,0.938 -0.464,-1.373 -1.595,-2.361 -2.504,-3.431 -2.036,-2.32 -4.382,-4.341 -6.615,-6.482 -1.687,-1.381 -3.745,-2.248 -5.788,-2.989 -1.72,-0.735 -3.429,-1.479 -5.078,-2.378 0.279,-0.944 0.527,-1.541 0.955,-2.138 0.18,0.177 0.349,0.363 0.539,0.529 -0.058,-0.526 -0.248,-1.11 -0.816,-1.254 -1.421,-0.845 -3.138,0.448 -4.501,-0.51 -0.57,-0.3 -0.907,-0.893 -1.278,-1.392 -1.055,-1.476 -2.076,-3.002 -2.904,-4.622 -1.088,-1.864 -2.462,-3.647 -4.36,-4.758 C 60.376,11.359 58.38,9.857 56.171,8.69 54.266,7.705 52.587,6.355 50.752,5.228 c 0.182,0.751 0.771,1.293 1.2,1.901 -1.595,-0.79 -3.037,-1.856 -4.698,-2.483 z"
     id="path185"
     inkscape:connector-curvature="0"
     style="fill:#000000;stroke:#010101;stroke-width:0.0215" /><path
     d="m 58.844,12.648 c 0.073,-0.062 0.169,-0.097 0.285,-0.085 0.734,-0.046 1.477,-0.04 2.201,0.122 0.764,0.185 1.163,0.979 1.823,1.357 0.457,0.284 1.05,0.345 1.426,0.762 0.713,1.009 1.016,2.247 1.783,3.206 0.952,1.229 1.915,2.448 2.792,3.727 0.598,0.794 1.088,1.844 2.164,2.085 1.35,0.393 2.701,0.765 4.076,1.074 -0.298,0.706 -0.604,1.401 -0.818,2.133 2.086,1.141 4.264,2.119 6.34,3.248 0.96,0.665 2.19,0.507 3.151,1.151 0.678,0.464 1.222,1.087 1.843,1.619 0.357,0.375 0.866,0.651 0.997,1.17 0.204,0.513 -0.331,0.956 -0.497,1.365 0.167,-0.012 0.324,-0.015 0.492,-0.026 -0.007,0.146 -0.025,0.302 -0.023,0.458 -2.038,0.41 -3.916,-0.72 -5.741,-1.439 -1.849,-0.857 -3.83,-1.375 -5.766,-1.974 -0.933,-0.592 -2.045,-0.721 -3.117,-0.806 -0.052,-0.377 -0.08,-0.797 -0.554,-0.833 -0.475,-0.036 -1.677,-0.137 -2.421,0.317 -1.338,0.811 -2.441,1.968 -3.828,2.702 -0.998,0.525 -1.958,1.095 -2.908,1.694 -0.384,-0.271 -0.788,-0.542 -1.193,-0.813 0.422,-1.934 1.239,-3.827 2.698,-5.186 0.459,-0.614 0.91,-1.235 0.862,-2.213 -0.107,-0.875 -0.204,-1.03 -0.266,-1.531 -0.07,-0.475 -0.119,-0.969 -0.337,-1.408 -0.19,-0.365 -0.588,-0.584 -0.714,-0.987 -0.195,-0.925 -0.627,-1.758 -1.013,-2.529 -0.672,-1.163 -0.904,-2.565 -1.793,-3.614 -0.716,-1.364 -1.763,-2.587 -2.093,-4.12 -0.067,-0.212 -0.013,-0.487 0.149,-0.626 z"
     id="path187"
     inkscape:connector-curvature="0"
     style="fill:#000000;stroke:#010101;stroke-width:0.0215" /><path
     d="m 74.6,24.01 c 0.086,-0.079 0.157,0.028 0.235,0.197 -0.126,0.214 -0.298,0.218 -0.391,-0.017 0.028,-0.056 0.07,-0.154 0.099,-0.181 H 74.6 Z"
     id="path189"
     inkscape:connector-curvature="0"
     style="fill:#000000;stroke:#010101;stroke-width:0.0215" /><path
     d="m 11.152,8.653 c 0.352,0.93 1.066,1.62 1.667,2.367 -0.761,-0.417 -1.458,-0.928 -2.184,-1.396 -0.074,0.033 -0.206,0.102 -0.28,0.135 0.674,0.973 0.992,2.154 1.797,3.031 -0.125,0.146 -0.241,0.286 -0.373,0.421 1.005,1.023 1.667,2.302 2.317,3.559 0.759,1.434 1.991,2.584 2.596,4.115 0.523,1.554 1.485,2.9 2.013,4.438 0.277,0.744 0.562,1.324 1.102,1.72 0.292,0.968 0.843,1.84 0.747,2.9 -2.027,0.521 -4.104,0.454 -6.188,0.605 -1.445,0.131 -2.945,-0.189 -4.366,0.198 0.534,0.53 1.29,0.615 2.018,0.524 0.447,0.694 1.285,0.888 2.064,0.836 -0.034,0.142 -0.066,0.284 -0.108,0.432 0.476,0.136 0.956,0.254 1.437,0.374 0.018,0.138 0.037,0.274 0.061,0.422 0.678,0.306 1.269,0.775 1.948,1.083 0.537,0.232 0.614,0.874 0.923,1.304 0.654,0.81 0.963,1.847 1.066,2.878 0.008,0.253 0.253,0.384 0.426,0.532 0.052,0.495 0.095,0.996 0.233,1.477 0.169,-0.227 0.342,-0.471 0.462,-0.733 0.941,-2.306 1.674,-4.685 2.637,-6.977 0.071,-0.342 0.585,-0.298 0.744,-0.044 0.72,1.024 2.029,1.343 2.908,2.188 0.324,0.327 0.64,0.656 0.996,0.947 3.394,2.184 6.096,5.256 9.562,7.34 0.561,0.313 0.866,0.975 1.494,1.178 0.644,0.208 1.033,0.789 1.517,1.218 0.05,-0.181 0.106,-0.349 0.155,-0.53 0.39,0.513 0.733,1.085 1.272,1.451 -0.039,-0.475 -0.162,-0.953 -0.314,-1.414 0.325,0.325 0.649,0.651 0.993,0.963 -0.082,-1.193 -0.723,-2.241 -1.155,-3.323 0.351,0.322 0.71,0.638 1.083,0.933 -0.167,-1.113 -0.896,-2.023 -1.445,-2.967 -1.241,-2.053 -2.759,-3.918 -4.174,-5.862 -1.102,-1.286 -2.557,-2.231 -4.019,-3.077 -1.214,-0.798 -2.42,-1.601 -3.559,-2.514 0.342,-0.683 0.614,-1.106 1.022,-1.503 0.113,0.158 0.217,0.325 0.34,0.479 0.028,-0.412 -0.038,-0.884 -0.453,-1.071 -0.971,-0.841 -2.46,-0.086 -3.373,-1.004 -0.395,-0.308 -0.571,-0.807 -0.787,-1.24 -0.605,-1.272 -1.178,-2.58 -1.59,-3.931 C 23.807,19.539 23,17.987 21.7,16.879 20.268,15.581 18.948,14.161 17.416,12.966 16.093,11.952 14.995,10.69 13.745,9.576 c 0.036,0.601 0.413,1.095 0.658,1.618 -1.109,-0.822 -2.066,-1.835 -3.251,-2.541 z"
     id="path191"
     inkscape:connector-curvature="0"
     style="fill:#000000;stroke:#010101;stroke-width:0.0215" /><path
     d="m 18.923,16.357 c 0.064,-0.038 0.142,-0.05 0.229,-0.025 0.568,0.065 1.135,0.17 1.667,0.394 0.559,0.247 0.756,0.907 1.209,1.287 0.311,0.281 0.755,0.408 0.986,0.777 0.408,0.87 0.469,1.859 0.925,2.697 0.561,1.069 1.131,2.133 1.626,3.231 0.349,0.688 0.58,1.559 1.371,1.89 0.978,0.484 1.961,0.954 2.97,1.378 -0.324,0.5 -0.653,0.99 -0.917,1.52 1.439,1.157 2.971,2.203 4.404,3.351 0.644,0.641 1.606,0.688 2.253,1.312 0.455,0.446 0.786,0.998 1.188,1.49 0.222,0.335 0.574,0.616 0.603,1.031 0.086,0.419 -0.383,0.685 -0.567,0.977 0.129,0.014 0.25,0.032 0.38,0.046 -0.025,0.111 -0.061,0.228 -0.081,0.348 -1.615,0.035 -2.897,-1.087 -4.195,-1.886 -1.296,-0.909 -2.741,-1.575 -4.14,-2.298 -0.632,-0.581 -1.465,-0.831 -2.273,-1.042 0.012,-0.295 0.048,-0.62 -0.31,-0.714 -0.358,-0.091 -1.264,-0.333 -1.895,-0.087 -1.134,0.437 -2.136,1.17 -3.297,1.543 -0.835,0.265 -1.647,0.57 -2.456,0.899 -0.256,-0.26 -0.528,-0.522 -0.801,-0.786 0.587,-1.422 1.471,-2.758 2.772,-3.597 0.435,-0.406 0.865,-0.82 0.962,-1.575 0.038,-0.685 -0.016,-0.815 0.006,-1.208 0.011,-0.373 0.042,-0.758 -0.065,-1.124 -0.096,-0.306 -0.37,-0.527 -0.411,-0.852 -0.023,-0.735 -0.24,-1.43 -0.429,-2.073 -0.355,-0.982 -0.341,-2.086 -0.877,-3.009 -0.361,-1.141 -0.995,-2.219 -1.038,-3.437 -0.02,-0.171 0.058,-0.375 0.201,-0.458 z"
     id="path193"
     inkscape:connector-curvature="0"
     style="fill:#000000;stroke:#010101;stroke-width:0.0215" /><path
     d="m 29.42,27.202 c 0.077,-0.05 0.116,0.042 0.153,0.183 -0.126,0.146 -0.258,0.125 -0.296,-0.067 0.029,-0.038 0.075,-0.108 0.1,-0.124 z"
     id="path195"
     inkscape:connector-curvature="0"
     style="fill:#000000;stroke:#010101;stroke-width:0.0215" /><path
     d="m 52.85,44.688 c 0.466,0.989 1.31,1.682 2.035,2.448 -0.871,-0.391 -1.681,-0.89 -2.517,-1.338 -0.079,0.042 -0.217,0.13 -0.296,0.172 0.824,1.007 1.277,2.273 2.235,3.165 -0.124,0.17 -0.238,0.334 -0.37,0.494 1.19,1.035 2.028,2.376 2.853,3.698 0.956,1.504 2.407,2.658 3.206,4.284 0.708,1.657 1.882,3.048 2.594,4.687 0.37,0.792 0.733,1.403 1.358,1.789 0.406,1.035 1.086,1.943 1.075,3.113 -2.177,0.749 -4.461,0.857 -6.73,1.207 -1.573,0.271 -3.246,0.051 -4.771,0.599 0.633,0.535 1.467,0.562 2.259,0.397 0.551,0.723 1.486,0.861 2.335,0.736 -0.024,0.159 -0.046,0.317 -0.081,0.483 0.534,0.107 1.071,0.194 1.609,0.283 0.032,0.149 0.063,0.299 0.104,0.459 0.77,0.275 1.459,0.738 2.229,1.017 0.608,0.206 0.751,0.904 1.127,1.348 0.787,0.831 1.217,1.939 1.421,3.061 0.03,0.276 0.311,0.399 0.514,0.546 0.101,0.539 0.19,1.085 0.386,1.599 0.163,-0.264 0.333,-0.545 0.439,-0.843 0.829,-2.61 1.426,-5.282 2.279,-7.88 0.049,-0.381 0.616,-0.377 0.812,-0.114 0.879,1.061 2.343,1.295 3.379,2.145 0.386,0.329 0.76,0.662 1.177,0.95 3.91,2.096 7.142,5.228 11.124,7.208 0.642,0.294 1.034,0.992 1.74,1.16 0.723,0.17 1.201,0.773 1.769,1.201 0.039,-0.202 0.087,-0.393 0.125,-0.595 0.473,0.528 0.898,1.125 1.521,1.479 -0.084,-0.518 -0.261,-1.03 -0.469,-1.521 0.385,0.326 0.771,0.656 1.174,0.969 -0.194,-1.302 -0.987,-2.393 -1.557,-3.542 0.411,0.322 0.834,0.638 1.27,0.929 -0.282,-1.206 -1.162,-2.141 -1.847,-3.125 -1.539,-2.143 -3.365,-4.055 -5.088,-6.061 -1.321,-1.313 -3,-2.222 -4.675,-3.02 -1.401,-0.769 -2.794,-1.543 -4.121,-2.444 0.315,-0.777 0.577,-1.267 0.988,-1.737 0.139,0.165 0.268,0.339 0.417,0.494 -0.007,-0.452 -0.12,-0.965 -0.593,-1.133 -1.139,-0.837 -2.704,0.119 -3.783,-0.807 -0.462,-0.303 -0.698,-0.834 -0.973,-1.289 -0.774,-1.342 -1.516,-2.726 -2.089,-4.17 -0.77,-1.677 -1.789,-3.307 -3.312,-4.407 -1.684,-1.297 -3.256,-2.739 -5.039,-3.915 -1.537,-0.995 -2.854,-2.283 -4.321,-3.392 0.094,0.654 0.549,1.163 0.864,1.714 -1.287,-0.804 -2.426,-1.831 -3.786,-2.501 z"
     id="path197"
     inkscape:connector-curvature="0"
     style="fill:#000000;stroke:#010101;stroke-width:0.0215" /><path
     d="m 62.043,52.453 c 0.065,-0.049 0.151,-0.068 0.249,-0.05 0.628,0.021 1.259,0.088 1.862,0.286 0.634,0.221 0.907,0.928 1.438,1.306 0.364,0.279 0.863,0.38 1.148,0.765 0.522,0.918 0.678,1.997 1.252,2.875 0.708,1.124 1.425,2.24 2.064,3.4 0.443,0.725 0.773,1.657 1.669,1.951 1.114,0.445 2.232,0.875 3.377,1.251 -0.313,0.576 -0.63,1.143 -0.873,1.746 1.681,1.143 3.45,2.154 5.123,3.285 0.76,0.647 1.819,0.615 2.584,1.241 0.536,0.45 0.948,1.024 1.433,1.529 0.271,0.349 0.682,0.625 0.75,1.078 0.133,0.452 -0.36,0.785 -0.534,1.12 0.143,0.004 0.276,0.013 0.419,0.018 -0.018,0.123 -0.046,0.255 -0.058,0.388 -1.767,0.181 -3.27,-0.937 -4.762,-1.699 -1.501,-0.882 -3.144,-1.486 -4.739,-2.156 -0.744,-0.581 -1.68,-0.782 -2.584,-0.941 -0.014,-0.326 -0.002,-0.685 -0.402,-0.757 -0.4,-0.068 -1.414,-0.254 -2.084,0.072 -1.207,0.577 -2.239,1.469 -3.479,1.979 -0.894,0.364 -1.756,0.77 -2.614,1.201 -0.304,-0.264 -0.625,-0.526 -0.947,-0.792 0.52,-1.608 1.369,-3.149 2.723,-4.186 0.442,-0.484 0.878,-0.974 0.918,-1.81 -0.019,-0.754 -0.088,-0.894 -0.101,-1.325 -0.021,-0.408 -0.019,-0.833 -0.168,-1.225 -0.134,-0.326 -0.451,-0.545 -0.526,-0.897 -0.089,-0.804 -0.387,-1.548 -0.65,-2.234 -0.476,-1.046 -0.558,-2.259 -1.226,-3.223 -0.497,-1.22 -1.285,-2.346 -1.44,-3.677 -0.041,-0.185 0.029,-0.415 0.178,-0.519 z"
     id="path199"
     inkscape:connector-curvature="0"
     style="fill:#000000;stroke:#010101;stroke-width:0.0215" /><path
     d="m 74.499,63.419 c 0.079,-0.062 0.132,0.036 0.184,0.188 -0.124,0.171 -0.27,0.159 -0.33,-0.048 0.029,-0.044 0.071,-0.125 0.1,-0.145 z"
     id="path201"
     inkscape:connector-curvature="0"
     style="fill:#000000;stroke:#010101;stroke-width:0.0215" /><path
     d="m 10.639,45.927 c 0.647,0.606 1.49,0.877 2.266,1.237 -0.773,-0.034 -1.533,-0.168 -2.296,-0.257 -0.047,0.056 -0.125,0.163 -0.172,0.218 0.922,0.514 1.642,1.333 2.632,1.719 -0.043,0.166 -0.081,0.323 -0.133,0.482 1.207,0.425 2.24,1.187 3.255,1.936 1.171,0.849 2.611,1.285 3.697,2.272 1.03,1.037 2.33,1.735 3.357,2.758 0.515,0.487 0.971,0.84 1.559,0.942 0.615,0.66 1.398,1.142 1.74,2.027 -1.417,1.215 -3.106,1.979 -4.714,2.92 -1.105,0.675 -2.432,1.009 -3.417,1.878 0.637,0.215 1.274,-0.016 1.822,-0.375 0.631,0.381 1.377,0.205 1.98,-0.143 0.029,0.126 0.059,0.253 0.084,0.388 0.434,-0.079 0.865,-0.173 1.296,-0.267 0.068,0.104 0.138,0.206 0.215,0.314 0.663,-0.022 1.321,0.121 1.985,0.101 0.521,-0.026 0.835,0.457 1.251,0.68 0.842,0.391 1.498,1.099 1.986,1.883 0.105,0.199 0.354,0.208 0.55,0.259 0.237,0.375 0.468,0.76 0.768,1.09 0.046,-0.249 0.089,-0.511 0.081,-0.768 -0.155,-2.216 -0.504,-4.408 -0.636,-6.622 -0.079,-0.301 0.351,-0.469 0.577,-0.328 0.98,0.537 2.152,0.276 3.189,0.606 0.387,0.133 0.77,0.271 1.169,0.365 3.575,0.412 6.947,1.807 10.541,2.109 0.572,0.031 1.076,0.44 1.659,0.355 0.597,-0.087 1.138,0.226 1.693,0.377 -0.031,-0.164 -0.054,-0.32 -0.084,-0.484 0.513,0.258 1.012,0.579 1.588,0.66 -0.219,-0.364 -0.504,-0.7 -0.809,-1.008 0.391,0.132 0.777,0.265 1.174,0.38 -0.533,-0.923 -1.46,-1.509 -2.231,-2.204 0.407,0.119 0.821,0.23 1.235,0.32 -0.573,-0.825 -1.516,-1.267 -2.325,-1.806 -1.801,-1.154 -3.75,-2.05 -5.648,-3.048 -1.388,-0.597 -2.924,-0.779 -4.426,-0.88 -1.286,-0.161 -2.567,-0.329 -3.837,-0.611 0.005,-0.681 0.056,-1.127 0.226,-1.605 0.154,0.083 0.302,0.175 0.461,0.25 -0.14,-0.341 -0.378,-0.693 -0.784,-0.68 -1.108,-0.29 -2.003,0.899 -3.095,0.523 -0.437,-0.091 -0.775,-0.42 -1.118,-0.683 -0.985,-0.779 -1.958,-1.601 -2.819,-2.52 -1.082,-1.033 -2.339,-1.957 -3.815,-2.332 -1.657,-0.476 -3.273,-1.093 -4.969,-1.446 -1.458,-0.29 -2.834,-0.868 -4.272,-1.267 0.266,0.466 0.761,0.714 1.164,1.036 -1.21,-0.219 -2.374,-0.653 -3.6,-0.751 z"
     id="path203"
     inkscape:connector-curvature="0"
     style="fill:#000000;stroke:#010101;stroke-width:0.0215" /><path
     d="m 19.889,49.033 c 0.037,-0.056 0.094,-0.097 0.174,-0.11 0.48,-0.173 0.975,-0.311 1.489,-0.341 0.544,-0.024 0.962,0.428 1.474,0.554 0.359,0.102 0.765,0.028 1.095,0.233 0.668,0.536 1.107,1.303 1.802,1.794 0.869,0.636 1.744,1.263 2.573,1.946 0.55,0.413 1.078,1.02 1.84,0.973 0.974,0.003 1.945,-0.008 2.92,-0.066 -0.062,0.528 -0.133,1.05 -0.136,1.577 1.608,0.36 3.245,0.594 4.844,0.948 0.767,0.259 1.556,-0.083 2.32,0.163 0.54,0.178 1.021,0.488 1.537,0.725 0.31,0.181 0.701,0.268 0.888,0.588 0.233,0.301 -0.038,0.699 -0.069,1.004 0.109,-0.039 0.213,-0.072 0.322,-0.112 0.023,0.1 0.041,0.206 0.073,0.31 -1.279,0.664 -2.746,0.271 -4.099,0.143 -1.395,-0.217 -2.814,-0.182 -4.217,-0.21 -0.735,-0.215 -1.5,-0.088 -2.23,0.062 -0.106,-0.24 -0.206,-0.515 -0.528,-0.449 -0.323,0.067 -1.143,0.23 -1.551,0.676 -0.735,0.796 -1.249,1.778 -2.031,2.533 -0.564,0.54 -1.094,1.104 -1.611,1.686 -0.308,-0.106 -0.629,-0.211 -0.951,-0.313 -0.089,-1.368 0.092,-2.785 0.803,-3.97 0.188,-0.497 0.37,-0.996 0.15,-1.639 -0.24,-0.562 -0.333,-0.646 -0.471,-0.969 -0.138,-0.303 -0.265,-0.622 -0.494,-0.873 -0.197,-0.206 -0.503,-0.275 -0.665,-0.52 -0.307,-0.58 -0.754,-1.051 -1.159,-1.49 C 23.31,53.24 22.887,52.351 22.094,51.823 21.356,51.052 20.425,50.439 19.911,49.481 19.825,49.35 19.808,49.156 19.889,49.033 Z"
     id="path205"
     inkscape:connector-curvature="0"
     style="fill:#000000;stroke:#010101;stroke-width:0.0215" /><path
     d="m 32.558,53.58 c 0.042,-0.07 0.11,-0.013 0.194,0.085 -0.042,0.167 -0.156,0.201 -0.263,0.063 0.008,-0.042 0.018,-0.115 0.031,-0.138 z"
     id="path207"
     inkscape:connector-curvature="0"
     style="fill:#000000;stroke:#010101;stroke-width:0.0215" /><path
     d="m 39.371,77.427 c 0.513,0.483 1.183,0.699 1.799,0.988 -0.615,-0.028 -1.218,-0.138 -1.825,-0.209 -0.037,0.044 -0.1,0.129 -0.137,0.173 0.732,0.41 1.303,1.062 2.089,1.371 -0.035,0.132 -0.064,0.256 -0.106,0.384 0.958,0.339 1.778,0.947 2.584,1.545 0.93,0.676 2.073,1.024 2.936,1.812 0.816,0.826 1.848,1.385 2.663,2.199 0.408,0.388 0.771,0.668 1.237,0.752 0.487,0.525 1.109,0.909 1.379,1.614 -1.129,0.963 -2.473,1.566 -3.752,2.312 -0.881,0.534 -1.936,0.797 -2.72,1.486 0.506,0.172 1.013,-0.011 1.448,-0.295 0.502,0.303 1.096,0.165 1.575,-0.11 0.022,0.101 0.046,0.201 0.065,0.309 0.346,-0.061 0.688,-0.136 1.031,-0.209 0.055,0.082 0.109,0.164 0.171,0.25 0.526,-0.017 1.05,0.099 1.578,0.084 0.413,-0.02 0.663,0.365 0.993,0.543 0.668,0.311 1.188,0.876 1.575,1.5 0.084,0.158 0.28,0.166 0.438,0.207 0.186,0.299 0.37,0.603 0.608,0.867 0.037,-0.197 0.07,-0.406 0.065,-0.611 -0.119,-1.76 -0.394,-3.504 -0.493,-5.264 -0.062,-0.239 0.279,-0.371 0.459,-0.26 0.777,0.428 1.711,0.224 2.533,0.487 0.309,0.107 0.612,0.219 0.93,0.293 2.842,0.334 5.519,1.448 8.375,1.696 0.454,0.025 0.855,0.352 1.318,0.285 0.475,-0.068 0.902,0.181 1.345,0.303 -0.025,-0.131 -0.041,-0.255 -0.066,-0.386 0.408,0.205 0.805,0.463 1.263,0.528 -0.174,-0.291 -0.4,-0.558 -0.642,-0.804 0.309,0.106 0.617,0.213 0.933,0.305 -0.424,-0.734 -1.157,-1.202 -1.771,-1.756 0.324,0.096 0.651,0.186 0.98,0.257 -0.452,-0.657 -1.201,-1.01 -1.845,-1.439 -1.429,-0.921 -2.977,-1.636 -4.483,-2.434 -1.102,-0.476 -2.323,-0.623 -3.517,-0.707 -1.021,-0.13 -2.04,-0.266 -3.049,-0.493 0.005,-0.542 0.046,-0.896 0.183,-1.275 0.122,0.066 0.239,0.14 0.365,0.199 -0.11,-0.271 -0.3,-0.552 -0.622,-0.541 -0.88,-0.232 -1.594,0.711 -2.461,0.41 -0.348,-0.072 -0.615,-0.335 -0.887,-0.544 -0.781,-0.622 -1.553,-1.276 -2.236,-2.009 -0.858,-0.823 -1.855,-1.56 -3.029,-1.861 -1.316,-0.38 -2.6,-0.873 -3.946,-1.157 -1.158,-0.234 -2.25,-0.695 -3.393,-1.016 0.21,0.371 0.604,0.568 0.923,0.826 -0.962,-0.178 -1.887,-0.525 -2.861,-0.605 z"
     id="path209"
     inkscape:connector-curvature="0"
     style="fill:#000000;stroke:#010101;stroke-width:0.0215" /><path
     d="m 46.719,79.913 c 0.028,-0.045 0.074,-0.076 0.137,-0.088 0.383,-0.136 0.777,-0.245 1.186,-0.269 0.432,-0.018 0.764,0.342 1.17,0.443 0.285,0.082 0.608,0.024 0.871,0.188 0.529,0.426 0.877,1.037 1.428,1.428 0.69,0.507 1.385,1.008 2.043,1.552 0.436,0.33 0.854,0.812 1.461,0.776 0.773,0.005 1.546,-0.002 2.32,-0.047 -0.051,0.42 -0.107,0.834 -0.11,1.254 1.276,0.288 2.578,0.478 3.849,0.762 0.609,0.208 1.236,-0.062 1.843,0.135 0.429,0.143 0.811,0.39 1.221,0.578 0.246,0.145 0.558,0.214 0.705,0.47 0.186,0.239 -0.031,0.555 -0.057,0.798 0.087,-0.032 0.169,-0.058 0.256,-0.09 0.019,0.079 0.033,0.165 0.058,0.247 -1.018,0.525 -2.184,0.211 -3.259,0.105 -1.108,-0.175 -2.235,-0.149 -3.352,-0.174 -0.583,-0.173 -1.192,-0.073 -1.772,0.045 -0.085,-0.192 -0.163,-0.411 -0.42,-0.358 -0.256,0.054 -0.908,0.181 -1.234,0.534 -0.586,0.632 -0.995,1.41 -1.619,2.009 -0.448,0.43 -0.871,0.877 -1.283,1.339 -0.244,-0.087 -0.5,-0.17 -0.756,-0.252 -0.068,-1.087 0.078,-2.214 0.646,-3.153 0.15,-0.395 0.295,-0.791 0.121,-1.303 -0.188,-0.447 -0.264,-0.515 -0.371,-0.771 -0.109,-0.24 -0.21,-0.494 -0.392,-0.694 -0.156,-0.165 -0.399,-0.22 -0.527,-0.414 -0.243,-0.461 -0.598,-0.837 -0.919,-1.188 -0.531,-0.514 -0.866,-1.222 -1.496,-1.644 -0.584,-0.613 -1.324,-1.103 -1.73,-1.865 -0.071,-0.102 -0.084,-0.255 -0.018,-0.353 z"
     id="path211"
     inkscape:connector-curvature="0"
     style="fill:#000000;stroke:#010101;stroke-width:0.0215" /><path
     d="m 56.779,83.549 c 0.033,-0.055 0.088,-0.009 0.155,0.07 -0.034,0.132 -0.125,0.159 -0.21,0.05 0.007,-0.034 0.014,-0.093 0.025,-0.111 z"
     id="path213"
     inkscape:connector-curvature="0"
     style="fill:#000000;stroke:#010101;stroke-width:0.0215" /><path
     d="m 10.241,76.139 c 0.407,0.384 0.938,0.557 1.428,0.785 -0.489,-0.022 -0.968,-0.108 -1.45,-0.166 -0.03,0.035 -0.079,0.103 -0.109,0.138 0.582,0.326 1.035,0.844 1.659,1.088 -0.027,0.105 -0.051,0.203 -0.084,0.306 0.761,0.269 1.412,0.752 2.052,1.227 0.738,0.537 1.646,0.813 2.331,1.438 0.648,0.656 1.467,1.1 2.115,1.746 0.324,0.308 0.612,0.531 0.982,0.598 0.387,0.417 0.881,0.722 1.095,1.282 -0.896,0.764 -1.963,1.243 -2.979,1.836 -0.7,0.425 -1.537,0.633 -2.16,1.18 0.401,0.137 0.804,-0.009 1.15,-0.234 0.398,0.24 0.87,0.132 1.25,-0.087 0.018,0.079 0.037,0.16 0.052,0.244 0.274,-0.047 0.546,-0.106 0.818,-0.166 0.044,0.066 0.087,0.131 0.136,0.199 0.418,-0.013 0.834,0.079 1.253,0.066 0.328,-0.016 0.527,0.291 0.789,0.432 0.53,0.246 0.943,0.696 1.251,1.191 0.066,0.125 0.223,0.131 0.348,0.164 0.147,0.237 0.293,0.479 0.482,0.688 0.03,-0.157 0.056,-0.323 0.052,-0.485 -0.094,-1.397 -0.312,-2.783 -0.392,-4.18 -0.049,-0.19 0.222,-0.295 0.365,-0.207 0.617,0.34 1.358,0.179 2.012,0.388 0.245,0.086 0.486,0.174 0.738,0.232 2.256,0.266 4.382,1.149 6.651,1.347 0.36,0.021 0.679,0.279 1.047,0.227 0.376,-0.055 0.716,0.144 1.067,0.24 -0.021,-0.104 -0.032,-0.202 -0.053,-0.306 0.324,0.162 0.639,0.367 1.003,0.419 -0.138,-0.23 -0.318,-0.442 -0.51,-0.638 0.245,0.085 0.49,0.169 0.74,0.242 -0.336,-0.584 -0.918,-0.954 -1.405,-1.395 0.257,0.076 0.517,0.146 0.778,0.204 -0.359,-0.522 -0.954,-0.803 -1.465,-1.143 -1.135,-0.731 -2.363,-1.3 -3.561,-1.934 -0.874,-0.378 -1.845,-0.494 -2.792,-0.561 -0.812,-0.104 -1.62,-0.211 -2.421,-0.392 0.004,-0.431 0.036,-0.712 0.145,-1.014 0.097,0.053 0.19,0.111 0.29,0.158 -0.087,-0.215 -0.238,-0.438 -0.494,-0.43 -0.698,-0.184 -1.265,0.564 -1.954,0.326 -0.275,-0.057 -0.488,-0.267 -0.704,-0.433 -0.62,-0.493 -1.232,-1.013 -1.775,-1.595 -0.682,-0.653 -1.474,-1.237 -2.405,-1.479 -1.046,-0.302 -2.064,-0.693 -3.134,-0.919 -0.919,-0.186 -1.788,-0.551 -2.695,-0.806 0.168,0.294 0.479,0.451 0.734,0.655 -0.764,-0.136 -1.498,-0.412 -2.271,-0.476 z"
     id="path215"
     inkscape:connector-curvature="0"
     style="fill:#000000;stroke:#010101;stroke-width:0.0215" /><path
     d="m 16.075,78.113 c 0.022,-0.035 0.059,-0.061 0.109,-0.07 0.304,-0.106 0.617,-0.194 0.941,-0.212 0.343,-0.014 0.606,0.271 0.929,0.352 0.227,0.064 0.483,0.019 0.691,0.149 0.421,0.338 0.696,0.824 1.134,1.135 0.549,0.401 1.1,0.799 1.623,1.231 0.346,0.262 0.678,0.645 1.16,0.616 0.614,0.005 1.228,-0.002 1.843,-0.037 -0.04,0.334 -0.085,0.662 -0.088,0.996 1.014,0.229 2.048,0.379 3.057,0.605 0.483,0.165 0.981,-0.051 1.463,0.105 0.341,0.113 0.644,0.31 0.97,0.459 0.195,0.115 0.442,0.171 0.56,0.374 0.147,0.19 -0.024,0.439 -0.045,0.634 0.069,-0.026 0.135,-0.046 0.203,-0.072 0.015,0.063 0.026,0.132 0.046,0.196 -0.808,0.418 -1.734,0.168 -2.588,0.084 -0.88,-0.139 -1.774,-0.118 -2.661,-0.139 -0.463,-0.136 -0.947,-0.058 -1.407,0.037 -0.067,-0.153 -0.13,-0.327 -0.334,-0.285 -0.203,0.043 -0.721,0.143 -0.98,0.424 -0.465,0.502 -0.791,1.12 -1.286,1.595 -0.356,0.342 -0.691,0.697 -1.019,1.063 -0.194,-0.069 -0.397,-0.135 -0.6,-0.199 -0.055,-0.864 0.062,-1.759 0.514,-2.505 0.119,-0.312 0.233,-0.627 0.096,-1.034 C 20.257,83.261 20.197,83.207 20.111,83.003 20.024,82.812 19.945,82.61 19.8,82.451 19.676,82.32 19.483,82.276 19.381,82.123 19.188,81.756 18.906,81.458 18.652,81.18 18.23,80.772 17.964,80.21 17.464,79.874 17.001,79.388 16.413,78.999 16.09,78.394 16.034,78.313 16.023,78.191 16.075,78.113 Z"
     id="path217"
     inkscape:connector-curvature="0"
     style="fill:#000000;stroke:#010101;stroke-width:0.0215" /><path
     d="m 24.064,81.001 c 0.026,-0.043 0.07,-0.007 0.123,0.055 -0.026,0.105 -0.099,0.128 -0.166,0.04 0.005,-0.026 0.011,-0.073 0.02,-0.088 z"
     id="path219"
     inkscape:connector-curvature="0"
     style="fill:#000000;stroke:#010101;stroke-width:0.0215" /></svg>