<svg width="24" height="24" viewBox="0 0 24 24" fill="none" xmlns="http://www.w3.org/2000/svg">
<path fill-rule="evenodd" clip-rule="evenodd" d="M11.9994 20.9987C16.9696 20.9987 20.9987 16.9696 20.9987 11.9994C20.9987 7.02915 16.9696 3 11.9994 3C7.02915 3 3 7.02915 3 11.9994C3 16.9696 7.02915 20.9987 11.9994 20.9987ZM19.4987 11.9994C19.4987 16.1411 16.1411 19.4987 11.9994 19.4987C7.85758 19.4987 4.5 16.1411 4.5 11.9994C4.5 7.85758 7.85758 4.5 11.9994 4.5C16.1411 4.5 19.4987 7.85758 19.4987 11.9994ZM11.25 7.75H12.75V9.25H11.25V7.75ZM11.25 10.75H12.75V16.25H11.25V10.75Z" fill="#9EA0A5"/>
</svg>